G04 Layer_Color=8388736*
%FSLAX24Y24*%
%MOIN*%
G70*
G01*
G75*
%ADD48R,0.0380X0.0380*%
%ADD49R,0.0237X0.0907*%
%ADD50R,0.0789X0.0828*%
%ADD51R,0.0552X0.0474*%
%ADD52R,0.0380X0.0380*%
%ADD53R,0.1064X0.0552*%
%ADD54R,0.0867X0.1458*%
%ADD55O,0.0730X0.0277*%
%ADD56R,0.0651X0.0198*%
%ADD57R,0.0198X0.0651*%
%ADD58R,0.0580X0.1080*%
%ADD59R,0.0580X0.0480*%
%ADD60R,0.0680X0.0680*%
%ADD61R,0.0867X0.0552*%
%ADD62C,0.0277*%
G04:AMPARAMS|DCode=63|XSize=92.6mil|YSize=39.5mil|CornerRadius=11.9mil|HoleSize=0mil|Usage=FLASHONLY|Rotation=90.000|XOffset=0mil|YOffset=0mil|HoleType=Round|Shape=RoundedRectangle|*
%AMROUNDEDRECTD63*
21,1,0.0926,0.0157,0,0,90.0*
21,1,0.0689,0.0395,0,0,90.0*
1,1,0.0237,0.0079,0.0344*
1,1,0.0237,0.0079,-0.0344*
1,1,0.0237,-0.0079,-0.0344*
1,1,0.0237,-0.0079,0.0344*
%
%ADD63ROUNDEDRECTD63*%
%ADD64C,0.1261*%
%ADD65C,0.0552*%
%ADD66C,0.0316*%
%ADD67C,0.2049*%
%ADD68O,0.0671X0.0867*%
%ADD69O,0.0867X0.0671*%
D48*
X9331Y17043D02*
D03*
Y17643D02*
D03*
X9902Y17648D02*
D03*
Y17048D02*
D03*
X10472Y17043D02*
D03*
Y17643D02*
D03*
X11604Y17043D02*
D03*
Y17643D02*
D03*
X4675Y3878D02*
D03*
Y3278D02*
D03*
X5266D02*
D03*
Y3878D02*
D03*
X12175Y17648D02*
D03*
Y17048D02*
D03*
X12746Y17043D02*
D03*
Y17643D02*
D03*
X14734Y10237D02*
D03*
Y10837D02*
D03*
X15118Y15374D02*
D03*
Y15974D02*
D03*
X4547Y17043D02*
D03*
Y17643D02*
D03*
X5748Y17043D02*
D03*
Y17643D02*
D03*
X6939Y17043D02*
D03*
Y17643D02*
D03*
X8169Y17043D02*
D03*
Y17643D02*
D03*
X2876Y12294D02*
D03*
Y12894D02*
D03*
X1634Y12299D02*
D03*
Y12899D02*
D03*
X1033Y12299D02*
D03*
Y12899D02*
D03*
X6348Y17648D02*
D03*
Y17048D02*
D03*
X5148Y17648D02*
D03*
Y17048D02*
D03*
X2224Y12899D02*
D03*
Y12299D02*
D03*
X13307Y17648D02*
D03*
Y17048D02*
D03*
X11033Y17648D02*
D03*
Y17048D02*
D03*
X8760Y17648D02*
D03*
Y17048D02*
D03*
X7569Y17648D02*
D03*
Y17048D02*
D03*
X1358Y11525D02*
D03*
Y10925D02*
D03*
X2018Y11535D02*
D03*
Y10935D02*
D03*
D49*
X8425Y1860D02*
D03*
X8169D02*
D03*
X8681D02*
D03*
X8937D02*
D03*
X7913D02*
D03*
D50*
X7955Y650D02*
D03*
X8895D02*
D03*
D51*
X7165Y1535D02*
D03*
X9685D02*
D03*
D52*
X10453Y2874D02*
D03*
X9853D02*
D03*
X9457Y3622D02*
D03*
X7146Y3642D02*
D03*
X13189Y14665D02*
D03*
X13789D02*
D03*
X14528Y14675D02*
D03*
X15128D02*
D03*
X13189Y14104D02*
D03*
X13789D02*
D03*
X14528Y13425D02*
D03*
X15128D02*
D03*
X13160Y18602D02*
D03*
X13760D02*
D03*
X3100Y4488D02*
D03*
X2500D02*
D03*
X3357Y2569D02*
D03*
X3957D02*
D03*
X13784Y13533D02*
D03*
X13184D02*
D03*
X2281Y16732D02*
D03*
X2881D02*
D03*
X3956Y1909D02*
D03*
X3356D02*
D03*
X15138Y14085D02*
D03*
X14538D02*
D03*
X2281Y16152D02*
D03*
X2881D02*
D03*
X13180Y12362D02*
D03*
X13780D02*
D03*
X13784Y12963D02*
D03*
X13184D02*
D03*
X2281Y13583D02*
D03*
X2881D02*
D03*
X2281Y15561D02*
D03*
X2881D02*
D03*
X12386Y6427D02*
D03*
X11786D02*
D03*
X13814Y9675D02*
D03*
X13213D02*
D03*
X13814Y10246D02*
D03*
X13213D02*
D03*
X13159Y11811D02*
D03*
X13759D02*
D03*
X8907Y3622D02*
D03*
X7696Y3642D02*
D03*
X12401Y7264D02*
D03*
X11801D02*
D03*
X13819Y10807D02*
D03*
X13218D02*
D03*
X14439Y15295D02*
D03*
X13839D02*
D03*
X11791Y5856D02*
D03*
X12391D02*
D03*
X11791Y5276D02*
D03*
X12391D02*
D03*
D53*
X2480Y7431D02*
D03*
Y5620D02*
D03*
Y6526D02*
D03*
D54*
X4646D02*
D03*
D55*
X9862Y4724D02*
D03*
Y4980D02*
D03*
Y5236D02*
D03*
Y6004D02*
D03*
Y6260D02*
D03*
Y6516D02*
D03*
Y6772D02*
D03*
Y7028D02*
D03*
X7008Y4724D02*
D03*
Y4980D02*
D03*
Y5236D02*
D03*
Y5492D02*
D03*
Y5748D02*
D03*
Y6004D02*
D03*
Y6260D02*
D03*
Y6516D02*
D03*
Y6772D02*
D03*
Y7028D02*
D03*
X9862Y5748D02*
D03*
Y5492D02*
D03*
D56*
X10413Y13868D02*
D03*
Y13671D02*
D03*
Y13474D02*
D03*
Y13278D02*
D03*
Y13081D02*
D03*
Y12884D02*
D03*
Y12687D02*
D03*
Y12490D02*
D03*
Y12293D02*
D03*
Y12096D02*
D03*
Y11900D02*
D03*
Y11703D02*
D03*
Y11506D02*
D03*
Y11309D02*
D03*
Y11112D02*
D03*
Y10915D02*
D03*
X5906D02*
D03*
Y11112D02*
D03*
Y11309D02*
D03*
Y11506D02*
D03*
Y11703D02*
D03*
Y11900D02*
D03*
Y12096D02*
D03*
Y12293D02*
D03*
Y12490D02*
D03*
Y12687D02*
D03*
Y12884D02*
D03*
Y13081D02*
D03*
Y13278D02*
D03*
Y13474D02*
D03*
Y13671D02*
D03*
Y13868D02*
D03*
D57*
X9636Y10138D02*
D03*
X9439D02*
D03*
X9242D02*
D03*
X9045D02*
D03*
X8848D02*
D03*
X8652D02*
D03*
X8455D02*
D03*
X8258D02*
D03*
X8061D02*
D03*
X7864D02*
D03*
X7667D02*
D03*
X7470D02*
D03*
X7274D02*
D03*
X7077D02*
D03*
X6880D02*
D03*
X6683D02*
D03*
Y14646D02*
D03*
X6880D02*
D03*
X7077D02*
D03*
X7274D02*
D03*
X7470D02*
D03*
X7667D02*
D03*
X7864D02*
D03*
X8061D02*
D03*
X8258D02*
D03*
X8455D02*
D03*
X8652D02*
D03*
X8848D02*
D03*
X9045D02*
D03*
X9242D02*
D03*
X9439D02*
D03*
X9636D02*
D03*
D58*
X1566Y14547D02*
D03*
X2766D02*
D03*
D59*
X2746Y10856D02*
D03*
Y11656D02*
D03*
D60*
X2283Y3543D02*
D03*
X3583D02*
D03*
X13101Y8110D02*
D03*
X11801D02*
D03*
D61*
X14724Y3100D02*
D03*
X11496D02*
D03*
D62*
X9213Y1535D02*
D03*
X7638D02*
D03*
D63*
X7323Y650D02*
D03*
X9528Y689D02*
D03*
D64*
X16935Y20856D02*
D03*
X-1585D02*
D03*
D65*
X1132Y20297D02*
D03*
X1677Y21415D02*
D03*
X3313Y20297D02*
D03*
X4404D02*
D03*
X5494D02*
D03*
X6585D02*
D03*
X7675D02*
D03*
X8766D02*
D03*
X9856D02*
D03*
X10947D02*
D03*
X12037D02*
D03*
X13128D02*
D03*
X2222D02*
D03*
X2768Y21415D02*
D03*
X3858D02*
D03*
X4949D02*
D03*
X6039D02*
D03*
X7130D02*
D03*
X8220D02*
D03*
X9311D02*
D03*
X10402D02*
D03*
X11492D02*
D03*
X12583D02*
D03*
X13673D02*
D03*
X14218Y20297D02*
D03*
D66*
X650Y6634D02*
D03*
Y5650D02*
D03*
Y4665D02*
D03*
D67*
X1181Y1181D02*
D03*
X14783Y1132D02*
D03*
D68*
X4094Y659D02*
D03*
X3094D02*
D03*
D69*
X14646Y8663D02*
D03*
Y7663D02*
D03*
Y6663D02*
D03*
Y5663D02*
D03*
M02*
