G04 Layer_Physical_Order=2*
G04 Layer_Color=16711680*
%FSLAX24Y24*%
%MOIN*%
G70*
G01*
G75*
%ADD10R,0.0300X0.0300*%
%ADD24C,0.0118*%
%ADD25C,0.0236*%
%ADD26C,0.0197*%
%ADD28C,0.0157*%
%ADD29C,0.0150*%
%ADD30C,0.0197*%
G04:AMPARAMS|DCode=31|XSize=84.6mil|YSize=31.5mil|CornerRadius=7.9mil|HoleSize=0mil|Usage=FLASHONLY|Rotation=90.000|XOffset=0mil|YOffset=0mil|HoleType=Round|Shape=RoundedRectangle|*
%AMROUNDEDRECTD31*
21,1,0.0846,0.0157,0,0,90.0*
21,1,0.0689,0.0315,0,0,90.0*
1,1,0.0157,0.0079,0.0344*
1,1,0.0157,0.0079,-0.0344*
1,1,0.0157,-0.0079,-0.0344*
1,1,0.0157,-0.0079,0.0344*
%
%ADD31ROUNDEDRECTD31*%
%ADD32C,0.1181*%
%ADD33C,0.0472*%
%ADD34C,0.0236*%
%ADD35C,0.1969*%
%ADD36O,0.0591X0.0787*%
%ADD37O,0.0787X0.0591*%
%ADD38C,0.0160*%
%ADD39R,0.0472X0.0787*%
G36*
X11127Y11574D02*
X11132Y11570D01*
X11134Y11564D01*
X11144Y11560D01*
X11152Y11554D01*
X11159Y11554D01*
X11164Y11552D01*
X12371D01*
X12386Y11502D01*
X12380Y11498D01*
X12340Y11438D01*
X12336Y11418D01*
X12683D01*
X12679Y11438D01*
X12640Y11498D01*
X12634Y11502D01*
X12649Y11552D01*
X13031D01*
X15888Y11542D01*
X15888Y11542D01*
X15922Y11505D01*
X15923Y11503D01*
Y1489D01*
X15873Y1483D01*
X15873Y1486D01*
X15804Y1652D01*
X15710Y1805D01*
X15593Y1942D01*
X15457Y2058D01*
X15303Y2152D01*
X15137Y2221D01*
X14963Y2263D01*
X14783Y2277D01*
X14604Y2263D01*
X14430Y2221D01*
X14264Y2152D01*
X14110Y2058D01*
X13974Y1942D01*
X13857Y1805D01*
X13763Y1652D01*
X13694Y1486D01*
X13652Y1311D01*
X13638Y1132D01*
X13652Y953D01*
X13694Y778D01*
X13763Y612D01*
X13857Y459D01*
X13974Y322D01*
X14110Y205D01*
X14200Y150D01*
X14186Y100D01*
X9756D01*
X9741Y150D01*
X9777Y174D01*
X9829Y252D01*
X9847Y344D01*
Y1033D01*
X9829Y1126D01*
X9777Y1204D01*
X9698Y1256D01*
X9606Y1274D01*
X9449D01*
X9357Y1256D01*
X9279Y1204D01*
X9226Y1126D01*
X9208Y1033D01*
Y344D01*
X9226Y252D01*
X9279Y174D01*
X9314Y150D01*
X9299Y100D01*
X7603D01*
X7582Y150D01*
X7624Y213D01*
X7642Y305D01*
Y994D01*
X7624Y1086D01*
X7572Y1164D01*
X7494Y1217D01*
X7402Y1235D01*
X7244D01*
X7152Y1217D01*
X7074Y1164D01*
X7022Y1086D01*
X7003Y994D01*
Y305D01*
X7022Y213D01*
X7063Y150D01*
X7042Y100D01*
X4296D01*
X4286Y150D01*
X4323Y166D01*
X4417Y238D01*
X4490Y333D01*
X4536Y443D01*
X4551Y561D01*
Y758D01*
X4536Y876D01*
X4490Y986D01*
X4417Y1081D01*
X4323Y1153D01*
X4213Y1199D01*
X4094Y1215D01*
X3976Y1199D01*
X3866Y1153D01*
X3772Y1081D01*
X3699Y986D01*
X3653Y876D01*
X3638Y758D01*
Y561D01*
X3653Y443D01*
X3699Y333D01*
X3772Y238D01*
X3866Y166D01*
X3903Y150D01*
X3893Y100D01*
X1684D01*
X1674Y149D01*
X1701Y161D01*
X1854Y255D01*
X1991Y371D01*
X2108Y508D01*
X2202Y661D01*
X2270Y827D01*
X2312Y1002D01*
X2326Y1181D01*
X2312Y1360D01*
X2270Y1535D01*
X2202Y1701D01*
X2108Y1854D01*
X1991Y1991D01*
X1854Y2108D01*
X1701Y2202D01*
X1535Y2270D01*
X1360Y2312D01*
X1181Y2326D01*
X1002Y2312D01*
X827Y2270D01*
X661Y2202D01*
X508Y2108D01*
X371Y1991D01*
X255Y1854D01*
X161Y1701D01*
X149Y1674D01*
X100Y1684D01*
Y11198D01*
X3606D01*
X3616Y11202D01*
X3626Y11203D01*
X3630Y11208D01*
X3636Y11210D01*
X3640Y11220D01*
X3647Y11228D01*
X3651Y11240D01*
X3771D01*
X3774Y11228D01*
X3781Y11220D01*
X3785Y11210D01*
X3791Y11208D01*
X3795Y11203D01*
X3805Y11202D01*
X3815Y11198D01*
X4067D01*
X4070Y11199D01*
X4072Y11198D01*
X4084Y11205D01*
X4097Y11210D01*
X4144Y11209D01*
X4188Y11179D01*
X4242Y11169D01*
X4296Y11179D01*
X4340Y11209D01*
X4387Y11210D01*
X4400Y11205D01*
X4412Y11198D01*
X4415Y11199D01*
X4417Y11198D01*
X9606D01*
X9606Y11198D01*
X9636Y11210D01*
X9636Y11210D01*
X9978Y11552D01*
X10765D01*
X10771Y11554D01*
X10777Y11554D01*
X10785Y11560D01*
X10795Y11564D01*
X10797Y11570D01*
X10802Y11574D01*
X10814Y11594D01*
X10912D01*
X10918Y11590D01*
X10965Y11581D01*
X11011Y11590D01*
X11017Y11594D01*
X11115D01*
X11127Y11574D01*
D02*
G37*
G36*
X-2175Y21947D02*
X17638D01*
Y21944D01*
X17642Y21943D01*
X17643Y21939D01*
X17646D01*
Y21220D01*
X17596Y21207D01*
X17560Y21274D01*
X17467Y21388D01*
X17353Y21481D01*
X17223Y21551D01*
X17082Y21594D01*
X16935Y21608D01*
X16788Y21594D01*
X16647Y21551D01*
X16517Y21481D01*
X16404Y21388D01*
X16310Y21274D01*
X16241Y21144D01*
X16198Y21003D01*
X16183Y20856D01*
X16198Y20710D01*
X16241Y20569D01*
X16310Y20439D01*
X16404Y20325D01*
X16517Y20231D01*
X16647Y20162D01*
X16788Y20119D01*
X16935Y20105D01*
X17082Y20119D01*
X17223Y20162D01*
X17353Y20231D01*
X17467Y20325D01*
X17560Y20439D01*
X17596Y20505D01*
X17646Y20493D01*
Y19697D01*
X16506D01*
Y19698D01*
X16392Y19686D01*
X16283Y19653D01*
X16182Y19599D01*
X16093Y19527D01*
X16021Y19438D01*
X15967Y19337D01*
X15934Y19228D01*
X15922Y19114D01*
X15923D01*
Y11620D01*
X15888Y11585D01*
X13032Y11594D01*
X11164D01*
X11136Y11644D01*
X11138Y11653D01*
X10791D01*
X10793Y11644D01*
X10765Y11594D01*
X9961D01*
X9606Y11240D01*
X4417D01*
X4379Y11290D01*
X4383Y11309D01*
Y11611D01*
X4411Y11625D01*
X4433Y11630D01*
X4474Y11602D01*
X4528Y11592D01*
X4581Y11602D01*
X4627Y11633D01*
X4657Y11679D01*
X4668Y11732D01*
Y12005D01*
X4718Y12020D01*
X4733Y11997D01*
X4779Y11967D01*
X4833Y11956D01*
X4886Y11967D01*
X4932Y11997D01*
X4962Y12043D01*
X4973Y12096D01*
Y12359D01*
X4977Y12363D01*
X5023Y12381D01*
X5055Y12360D01*
X5108Y12350D01*
X5162Y12360D01*
X5208Y12391D01*
X5238Y12436D01*
X5249Y12490D01*
Y12559D01*
X5299Y12574D01*
X5303Y12567D01*
X5363Y12527D01*
X5372Y12525D01*
Y12475D01*
X5363Y12473D01*
X5303Y12433D01*
X5264Y12373D01*
X5260Y12353D01*
X5607D01*
X5603Y12373D01*
X5563Y12433D01*
X5503Y12473D01*
X5494Y12475D01*
Y12525D01*
X5503Y12527D01*
X5563Y12567D01*
X5603Y12627D01*
X5607Y12647D01*
X5433D01*
Y12697D01*
X5383D01*
Y12870D01*
X5363Y12866D01*
X5303Y12827D01*
X5299Y12820D01*
X5249Y12835D01*
Y13117D01*
X5299Y13138D01*
X5343Y13108D01*
X5363Y13104D01*
Y13278D01*
X5413D01*
Y13328D01*
X5587D01*
X5583Y13348D01*
X5543Y13407D01*
X5484Y13447D01*
X5459Y13452D01*
Y13503D01*
X5503Y13512D01*
X5563Y13551D01*
X5603Y13611D01*
X5607Y13631D01*
X5433D01*
Y13681D01*
X5383D01*
Y13855D01*
X5363Y13851D01*
X5303Y13811D01*
X5299Y13804D01*
X5249Y13819D01*
Y14101D01*
X5299Y14116D01*
X5314Y14094D01*
X5360Y14063D01*
X5413Y14052D01*
X5467Y14063D01*
X5513Y14094D01*
X5543Y14139D01*
X5554Y14193D01*
X5543Y14247D01*
X5514Y14291D01*
Y15613D01*
X5564Y15628D01*
X5570Y15619D01*
X5616Y15589D01*
X5669Y15578D01*
X9607D01*
X9615Y15570D01*
X9661Y15539D01*
X9691Y15533D01*
X11148Y14076D01*
X11147Y14072D01*
X11094Y14047D01*
X11074Y14051D01*
Y13877D01*
Y13704D01*
X11094Y13708D01*
X11128Y13731D01*
X11178Y13704D01*
Y13260D01*
X11128Y13234D01*
X11104Y13250D01*
X11083Y13254D01*
Y13081D01*
X11033D01*
Y13031D01*
X10860D01*
X10864Y13011D01*
X10904Y12951D01*
X10952Y12919D01*
X10956Y12877D01*
X10953Y12863D01*
X10914Y12836D01*
X10874Y12777D01*
X10870Y12757D01*
X11043D01*
Y12707D01*
X11093D01*
Y12533D01*
X11114Y12537D01*
X11128Y12547D01*
X11178Y12520D01*
Y11890D01*
X11189Y11836D01*
X11220Y11790D01*
X11265Y11760D01*
X11319Y11749D01*
X11373Y11760D01*
X11418Y11790D01*
X11449Y11836D01*
X11459Y11890D01*
Y12894D01*
Y14104D01*
X11449Y14158D01*
X11418Y14204D01*
X9834Y15788D01*
X9788Y15819D01*
X9753Y15826D01*
X9719Y15848D01*
X9665Y15859D01*
X5669D01*
X5616Y15848D01*
X5570Y15818D01*
X5564Y15809D01*
X5514Y15824D01*
Y17961D01*
X6251D01*
X6295Y17931D01*
X6348Y17921D01*
X6402Y17931D01*
X6448Y17962D01*
X6454Y17971D01*
X7481D01*
X7525Y17941D01*
X7579Y17930D01*
X7632Y17941D01*
X7677Y17971D01*
X8662D01*
X8706Y17941D01*
X8760Y17930D01*
X8814Y17941D01*
X8843Y17961D01*
X9814D01*
X9858Y17931D01*
X9911Y17921D01*
X9965Y17931D01*
X10011Y17962D01*
X10023Y17980D01*
X10936D01*
X10980Y17951D01*
X11033Y17940D01*
X11087Y17951D01*
X11131Y17980D01*
X12117D01*
X12131Y17971D01*
X12185Y17960D01*
X12239Y17971D01*
X12283Y18000D01*
X13202D01*
X13208Y17991D01*
X13253Y17961D01*
X13307Y17950D01*
X13361Y17961D01*
X13406Y17991D01*
X13437Y18037D01*
X13448Y18091D01*
X13437Y18144D01*
X13406Y18190D01*
X13361Y18220D01*
X13307Y18231D01*
X13253Y18220D01*
X13224Y18201D01*
X12283D01*
X12239Y18230D01*
X12185Y18241D01*
X12131Y18230D01*
X12086Y18200D01*
X12073Y18181D01*
X11131D01*
X11087Y18211D01*
X11033Y18221D01*
X10980Y18211D01*
X10936Y18181D01*
X9980D01*
X9965Y18191D01*
X9911Y18202D01*
X9858Y18191D01*
X9814Y18161D01*
X8865D01*
X8859Y18170D01*
X8814Y18201D01*
X8760Y18211D01*
X8706Y18201D01*
X8662Y18171D01*
X7677D01*
X7632Y18201D01*
X7579Y18211D01*
X7525Y18201D01*
X7481Y18171D01*
X6432D01*
X6402Y18191D01*
X6348Y18202D01*
X6295Y18191D01*
X6251Y18161D01*
X5506D01*
X5493Y18180D01*
X5447Y18211D01*
X5394Y18221D01*
X5340Y18211D01*
X5294Y18180D01*
X5264Y18134D01*
X5253Y18081D01*
X5264Y18027D01*
X5294Y17981D01*
X5313Y17969D01*
Y14317D01*
X5299Y14305D01*
X5249Y14328D01*
Y16152D01*
X5238Y16205D01*
X5208Y16251D01*
X5162Y16281D01*
X5108Y16292D01*
X5055Y16281D01*
X5009Y16251D01*
X4978Y16205D01*
X4968Y16152D01*
Y15675D01*
X4936Y15658D01*
X4918Y15653D01*
X4877Y15681D01*
X4823Y15692D01*
X4769Y15681D01*
X4723Y15651D01*
X4693Y15605D01*
X4682Y15551D01*
X4692Y15502D01*
Y14619D01*
X4642Y14604D01*
X4627Y14627D01*
X4581Y14657D01*
X4528Y14668D01*
X4474Y14657D01*
X4428Y14627D01*
X4398Y14581D01*
X4387Y14528D01*
Y13694D01*
X4358Y13680D01*
X4337Y13675D01*
X4296Y13703D01*
X4242Y13713D01*
X4188Y13703D01*
X4143Y13672D01*
X4112Y13627D01*
X4102Y13573D01*
Y11309D01*
X4105Y11290D01*
X4067Y11240D01*
X3815D01*
X3800Y11290D01*
X3840Y11317D01*
X3880Y11377D01*
X3884Y11397D01*
X3537D01*
X3541Y11377D01*
X3581Y11317D01*
X3621Y11290D01*
X3606Y11240D01*
X100D01*
Y19085D01*
X101D01*
X90Y19204D01*
X55Y19319D01*
X-2Y19425D01*
X-78Y19518D01*
X-171Y19594D01*
X-277Y19651D01*
X-392Y19686D01*
X-512Y19698D01*
Y19697D01*
X-2205D01*
Y19698D01*
X-2224Y19706D01*
X-2231Y19724D01*
X-2232D01*
Y20388D01*
X-2182Y20405D01*
X-2116Y20325D01*
X-2002Y20231D01*
X-1872Y20162D01*
X-1731Y20119D01*
X-1585Y20105D01*
X-1438Y20119D01*
X-1297Y20162D01*
X-1167Y20231D01*
X-1053Y20325D01*
X-960Y20439D01*
X-890Y20569D01*
X-847Y20710D01*
X-833Y20856D01*
X-847Y21003D01*
X-890Y21144D01*
X-960Y21274D01*
X-1053Y21388D01*
X-1167Y21481D01*
X-1297Y21551D01*
X-1438Y21594D01*
X-1585Y21608D01*
X-1731Y21594D01*
X-1872Y21551D01*
X-2002Y21481D01*
X-2116Y21388D01*
X-2182Y21307D01*
X-2232Y21325D01*
Y21890D01*
X-2233Y21892D01*
X-2217Y21931D01*
X-2177Y21947D01*
X-2175Y21947D01*
D02*
G37*
%LPC*%
G36*
X1613Y8195D02*
X1593Y8191D01*
X1534Y8151D01*
X1494Y8092D01*
X1490Y8072D01*
X1613D01*
Y8195D01*
D02*
G37*
G36*
X1713D02*
Y8072D01*
X1837D01*
X1833Y8092D01*
X1793Y8151D01*
X1734Y8191D01*
X1713Y8195D01*
D02*
G37*
G36*
X7411Y8178D02*
X7287D01*
X7291Y8158D01*
X7331Y8099D01*
X7390Y8059D01*
X7411Y8055D01*
Y8178D01*
D02*
G37*
G36*
X7634D02*
X7511D01*
Y8055D01*
X7531Y8059D01*
X7590Y8099D01*
X7630Y8158D01*
X7634Y8178D01*
D02*
G37*
G36*
X14744Y9120D02*
X14547D01*
X14429Y9104D01*
X14319Y9059D01*
X14224Y8986D01*
X14152Y8892D01*
X14106Y8782D01*
X14091Y8663D01*
X14106Y8545D01*
X14152Y8435D01*
X14181Y8397D01*
X13149Y7365D01*
X13118Y7320D01*
X13108Y7266D01*
Y5276D01*
X13118Y5222D01*
X13149Y5176D01*
X13194Y5146D01*
X13248Y5135D01*
X13302Y5146D01*
X13347Y5176D01*
X13378Y5222D01*
X13389Y5276D01*
Y7208D01*
X13559Y7378D01*
X13562Y7380D01*
X13600Y7348D01*
X13594Y7339D01*
X13571Y7304D01*
X13567Y7284D01*
X13740D01*
Y7234D01*
X13790D01*
Y7018D01*
X13794Y7011D01*
X13572Y6788D01*
X13541Y6743D01*
X13531Y6689D01*
Y5846D01*
X13541Y5793D01*
X13572Y5747D01*
X13617Y5717D01*
X13671Y5706D01*
X13725Y5717D01*
X13771Y5747D01*
X13801Y5793D01*
X13812Y5846D01*
Y6631D01*
X14411Y7230D01*
X14429Y7222D01*
X14547Y7207D01*
X14744D01*
X14862Y7222D01*
X14972Y7268D01*
X15067Y7340D01*
X15140Y7435D01*
X15185Y7545D01*
X15201Y7663D01*
X15185Y7782D01*
X15140Y7892D01*
X15067Y7986D01*
X14972Y8059D01*
X14862Y8104D01*
X14744Y8120D01*
X14547D01*
X14429Y8104D01*
X14319Y8059D01*
X14283Y8031D01*
X14250Y8069D01*
X14411Y8230D01*
X14429Y8222D01*
X14547Y8207D01*
X14744D01*
X14862Y8222D01*
X14972Y8268D01*
X15067Y8340D01*
X15140Y8435D01*
X15185Y8545D01*
X15201Y8663D01*
X15185Y8782D01*
X15140Y8892D01*
X15067Y8986D01*
X14972Y9059D01*
X14862Y9104D01*
X14744Y9120D01*
D02*
G37*
G36*
X15550Y8343D02*
X15530Y8339D01*
X15471Y8299D01*
X15431Y8239D01*
X15427Y8219D01*
X15550D01*
Y8343D01*
D02*
G37*
G36*
X5107Y8277D02*
X4984D01*
X4988Y8257D01*
X5028Y8197D01*
X5087Y8157D01*
X5107Y8153D01*
Y8277D01*
D02*
G37*
G36*
X5331D02*
X5207D01*
Y8153D01*
X5228Y8157D01*
X5287Y8197D01*
X5327Y8257D01*
X5331Y8277D01*
D02*
G37*
G36*
X10555Y8100D02*
X10355D01*
Y7900D01*
X10555D01*
Y8100D01*
D02*
G37*
G36*
X9084Y8109D02*
X8884D01*
Y7909D01*
X9084D01*
Y8109D01*
D02*
G37*
G36*
X9965Y8100D02*
X9765D01*
Y7900D01*
X9965D01*
Y8100D01*
D02*
G37*
G36*
X10255Y8100D02*
X10055D01*
Y7900D01*
X10255D01*
Y8100D01*
D02*
G37*
G36*
X9384Y8109D02*
X9184D01*
Y7909D01*
X9384D01*
Y8109D01*
D02*
G37*
G36*
X15550Y8119D02*
X15427D01*
X15431Y8099D01*
X15471Y8040D01*
X15530Y8000D01*
X15550Y7996D01*
Y8119D01*
D02*
G37*
G36*
X15774D02*
X15650D01*
Y7996D01*
X15671Y8000D01*
X15730Y8040D01*
X15770Y8099D01*
X15774Y8119D01*
D02*
G37*
G36*
X8483Y8110D02*
X8283D01*
Y7910D01*
X8483D01*
Y8110D01*
D02*
G37*
G36*
X8783D02*
X8583D01*
Y7910D01*
X8783D01*
Y8110D01*
D02*
G37*
G36*
X15650Y8343D02*
Y8219D01*
X15774D01*
X15770Y8239D01*
X15730Y8299D01*
X15671Y8339D01*
X15650Y8343D01*
D02*
G37*
G36*
X12713Y8917D02*
X12589D01*
Y8793D01*
X12610Y8797D01*
X12669Y8837D01*
X12709Y8896D01*
X12713Y8917D01*
D02*
G37*
G36*
X413Y9074D02*
X289D01*
X293Y9054D01*
X333Y8994D01*
X392Y8955D01*
X413Y8951D01*
Y9074D01*
D02*
G37*
G36*
X11699Y8917D02*
X11576D01*
Y8793D01*
X11596Y8797D01*
X11655Y8837D01*
X11695Y8896D01*
X11699Y8917D01*
D02*
G37*
G36*
X12489D02*
X12366D01*
X12370Y8896D01*
X12410Y8837D01*
X12469Y8797D01*
X12489Y8793D01*
Y8917D01*
D02*
G37*
G36*
X636Y9074D02*
X513D01*
Y8951D01*
X533Y8955D01*
X592Y8994D01*
X632Y9054D01*
X636Y9074D01*
D02*
G37*
G36*
X12489Y9140D02*
X12469Y9136D01*
X12410Y9096D01*
X12370Y9037D01*
X12366Y9017D01*
X12489D01*
Y9140D01*
D02*
G37*
G36*
X12589D02*
Y9017D01*
X12713D01*
X12709Y9037D01*
X12669Y9096D01*
X12610Y9136D01*
X12589Y9140D01*
D02*
G37*
G36*
X11476D02*
X11455Y9136D01*
X11396Y9096D01*
X11356Y9037D01*
X11352Y9017D01*
X11476D01*
Y9140D01*
D02*
G37*
G36*
X11576D02*
Y9017D01*
X11699D01*
X11695Y9037D01*
X11655Y9096D01*
X11596Y9136D01*
X11576Y9140D01*
D02*
G37*
G36*
X3483Y8474D02*
X3360D01*
X3364Y8453D01*
X3404Y8394D01*
X3463Y8354D01*
X3483Y8350D01*
Y8474D01*
D02*
G37*
G36*
X3707D02*
X3583D01*
Y8350D01*
X3604Y8354D01*
X3663Y8394D01*
X3703Y8453D01*
X3707Y8474D01*
D02*
G37*
G36*
X7411Y8402D02*
X7390Y8398D01*
X7331Y8358D01*
X7291Y8299D01*
X7287Y8278D01*
X7411D01*
Y8402D01*
D02*
G37*
G36*
X7511D02*
Y8278D01*
X7634D01*
X7630Y8299D01*
X7590Y8358D01*
X7531Y8398D01*
X7511Y8402D01*
D02*
G37*
G36*
X5107Y8500D02*
X5087Y8496D01*
X5028Y8456D01*
X4988Y8397D01*
X4984Y8377D01*
X5107D01*
Y8500D01*
D02*
G37*
G36*
X3583Y8697D02*
Y8574D01*
X3707D01*
X3703Y8594D01*
X3663Y8653D01*
X3604Y8693D01*
X3583Y8697D01*
D02*
G37*
G36*
X11476Y8917D02*
X11352D01*
X11356Y8896D01*
X11396Y8837D01*
X11455Y8797D01*
X11476Y8793D01*
Y8917D01*
D02*
G37*
G36*
X5207Y8500D02*
Y8377D01*
X5331D01*
X5327Y8397D01*
X5287Y8456D01*
X5228Y8496D01*
X5207Y8500D01*
D02*
G37*
G36*
X3483Y8697D02*
X3463Y8693D01*
X3404Y8653D01*
X3364Y8594D01*
X3360Y8574D01*
X3483D01*
Y8697D01*
D02*
G37*
G36*
X9665Y8100D02*
X9465D01*
Y7900D01*
X9665D01*
Y8100D01*
D02*
G37*
G36*
X8908Y7044D02*
Y6920D01*
X9032D01*
X9028Y6940D01*
X8988Y7000D01*
X8928Y7040D01*
X8908Y7044D01*
D02*
G37*
G36*
X15550Y7122D02*
X15530Y7118D01*
X15471Y7079D01*
X15431Y7019D01*
X15427Y6999D01*
X15550D01*
Y7122D01*
D02*
G37*
G36*
X10705Y6978D02*
X10582D01*
Y6854D01*
X10602Y6858D01*
X10661Y6898D01*
X10701Y6957D01*
X10705Y6978D01*
D02*
G37*
G36*
X8808Y7044D02*
X8788Y7040D01*
X8729Y7000D01*
X8689Y6940D01*
X8685Y6920D01*
X8808D01*
Y7044D01*
D02*
G37*
G36*
X15650Y7122D02*
Y6999D01*
X15774D01*
X15770Y7019D01*
X15730Y7079D01*
X15671Y7118D01*
X15650Y7122D01*
D02*
G37*
G36*
X10481Y7201D02*
X10461Y7197D01*
X10402Y7157D01*
X10362Y7098D01*
X10358Y7078D01*
X10481D01*
Y7201D01*
D02*
G37*
G36*
X10582D02*
Y7078D01*
X10705D01*
X10701Y7098D01*
X10661Y7157D01*
X10602Y7197D01*
X10582Y7201D01*
D02*
G37*
G36*
X12530Y7736D02*
X11742D01*
Y6634D01*
X12530D01*
Y7024D01*
X12648D01*
X12648Y7024D01*
X12709Y7037D01*
X12761Y7071D01*
X13056Y7367D01*
X13091Y7419D01*
X13103Y7480D01*
X13091Y7542D01*
X13056Y7594D01*
X13004Y7629D01*
X12943Y7641D01*
X12881Y7629D01*
X12829Y7594D01*
X12581Y7346D01*
X12530D01*
Y7736D01*
D02*
G37*
G36*
X13690Y7184D02*
X13567D01*
X13571Y7164D01*
X13610Y7105D01*
X13670Y7065D01*
X13690Y7061D01*
Y7184D01*
D02*
G37*
G36*
X8808Y6820D02*
X8685D01*
X8689Y6800D01*
X8729Y6740D01*
X8788Y6701D01*
X8808Y6697D01*
Y6820D01*
D02*
G37*
G36*
X9032D02*
X8908D01*
Y6697D01*
X8928Y6701D01*
X8988Y6740D01*
X9028Y6800D01*
X9032Y6820D01*
D02*
G37*
G36*
X10896Y9294D02*
X10842Y9283D01*
X10796Y9253D01*
X10766Y9207D01*
X10755Y9154D01*
X10766Y9100D01*
X10795Y9056D01*
Y6566D01*
X10745Y6561D01*
X10740Y6586D01*
X10701Y6645D01*
X10641Y6685D01*
X10621Y6689D01*
Y6516D01*
Y6342D01*
X10641Y6346D01*
X10701Y6386D01*
X10740Y6446D01*
X10745Y6471D01*
X10795Y6466D01*
Y5899D01*
X10790Y5894D01*
X10745Y5877D01*
X10713Y5898D01*
X10659Y5909D01*
X10606Y5898D01*
X10586Y5885D01*
X9952D01*
X9908Y5876D01*
X9870Y5851D01*
X8056Y4037D01*
X8030Y3999D01*
X8022Y3954D01*
Y3696D01*
X8008Y3676D01*
X7998Y3622D01*
X8008Y3568D01*
X8039Y3523D01*
X8084Y3492D01*
X8138Y3482D01*
X8192Y3492D01*
X8238Y3523D01*
X8259Y3555D01*
X8267Y3557D01*
X8306D01*
X8314Y3555D01*
X8336Y3523D01*
X8381Y3492D01*
X8435Y3482D01*
X8489Y3492D01*
X8534Y3523D01*
X8565Y3568D01*
X8576Y3622D01*
X8565Y3676D01*
X8552Y3696D01*
Y3849D01*
X10057Y5355D01*
X10586D01*
X10606Y5342D01*
X10659Y5331D01*
X10713Y5342D01*
X10745Y5363D01*
X10790Y5346D01*
X10795Y5341D01*
Y4793D01*
X10786Y4778D01*
X10775Y4724D01*
X10786Y4671D01*
X10816Y4625D01*
X10862Y4595D01*
X10915Y4584D01*
X10969Y4595D01*
X11015Y4625D01*
X11045Y4671D01*
X11056Y4724D01*
X11045Y4778D01*
X11015Y4824D01*
X10996Y4836D01*
Y9056D01*
X11025Y9100D01*
X11036Y9154D01*
X11025Y9207D01*
X10995Y9253D01*
X10949Y9283D01*
X10896Y9294D01*
D02*
G37*
G36*
X10521Y6689D02*
X10501Y6685D01*
X10441Y6645D01*
X10401Y6586D01*
X10397Y6566D01*
X10521D01*
Y6689D01*
D02*
G37*
G36*
X14596Y7062D02*
X14547D01*
X14444Y7048D01*
X14348Y7009D01*
X14265Y6945D01*
X14202Y6863D01*
X14162Y6767D01*
X14155Y6713D01*
X14596D01*
Y7062D01*
D02*
G37*
G36*
X15774Y6899D02*
X15650D01*
Y6775D01*
X15671Y6779D01*
X15730Y6819D01*
X15770Y6879D01*
X15774Y6899D01*
D02*
G37*
G36*
X10481Y6978D02*
X10358D01*
X10362Y6957D01*
X10402Y6898D01*
X10461Y6858D01*
X10481Y6854D01*
Y6978D01*
D02*
G37*
G36*
X14744Y7062D02*
X14696D01*
Y6713D01*
X15136D01*
X15129Y6767D01*
X15089Y6863D01*
X15026Y6945D01*
X14943Y7009D01*
X14847Y7048D01*
X14744Y7062D01*
D02*
G37*
G36*
X15550Y6899D02*
X15427D01*
X15431Y6879D01*
X15471Y6819D01*
X15530Y6779D01*
X15550Y6775D01*
Y6899D01*
D02*
G37*
G36*
X8574Y7752D02*
Y7629D01*
X8697D01*
X8693Y7649D01*
X8653Y7708D01*
X8594Y7748D01*
X8574Y7752D01*
D02*
G37*
G36*
X383Y7794D02*
X260D01*
X264Y7774D01*
X303Y7715D01*
X363Y7675D01*
X383Y7671D01*
Y7794D01*
D02*
G37*
G36*
X9735Y7723D02*
Y7599D01*
X9859D01*
X9855Y7619D01*
X9815Y7679D01*
X9755Y7719D01*
X9735Y7723D01*
D02*
G37*
G36*
X8474Y7752D02*
X8453Y7748D01*
X8394Y7708D01*
X8354Y7649D01*
X8350Y7629D01*
X8474D01*
Y7752D01*
D02*
G37*
G36*
X607Y7794D02*
X483D01*
Y7671D01*
X503Y7675D01*
X563Y7715D01*
X603Y7774D01*
X607Y7794D01*
D02*
G37*
G36*
X383Y8018D02*
X363Y8014D01*
X303Y7974D01*
X264Y7915D01*
X260Y7894D01*
X383D01*
Y8018D01*
D02*
G37*
G36*
X483D02*
Y7894D01*
X607D01*
X603Y7915D01*
X563Y7974D01*
X503Y8014D01*
X483Y8018D01*
D02*
G37*
G36*
X1613Y7972D02*
X1490D01*
X1494Y7951D01*
X1534Y7892D01*
X1593Y7852D01*
X1613Y7848D01*
Y7972D01*
D02*
G37*
G36*
X1837D02*
X1713D01*
Y7848D01*
X1734Y7852D01*
X1793Y7892D01*
X1833Y7951D01*
X1837Y7972D01*
D02*
G37*
G36*
X3562Y7437D02*
X3542Y7433D01*
X3482Y7394D01*
X3443Y7334D01*
X3439Y7314D01*
X3562D01*
Y7437D01*
D02*
G37*
G36*
X3662D02*
Y7314D01*
X3786D01*
X3782Y7334D01*
X3742Y7394D01*
X3682Y7433D01*
X3662Y7437D01*
D02*
G37*
G36*
X3562Y7214D02*
X3439D01*
X3443Y7194D01*
X3482Y7134D01*
X3542Y7094D01*
X3562Y7090D01*
Y7214D01*
D02*
G37*
G36*
X3786D02*
X3662D01*
Y7090D01*
X3682Y7094D01*
X3742Y7134D01*
X3782Y7194D01*
X3786Y7214D01*
D02*
G37*
G36*
X9635Y7499D02*
X9512D01*
X9516Y7479D01*
X9555Y7419D01*
X9615Y7380D01*
X9635Y7376D01*
Y7499D01*
D02*
G37*
G36*
X8697Y7529D02*
X8574D01*
Y7405D01*
X8594Y7409D01*
X8653Y7449D01*
X8693Y7509D01*
X8697Y7529D01*
D02*
G37*
G36*
X9635Y7723D02*
X9615Y7719D01*
X9555Y7679D01*
X9516Y7619D01*
X9512Y7599D01*
X9635D01*
Y7723D01*
D02*
G37*
G36*
X9859Y7499D02*
X9735D01*
Y7376D01*
X9755Y7380D01*
X9815Y7419D01*
X9855Y7479D01*
X9859Y7499D01*
D02*
G37*
G36*
X8474Y7529D02*
X8350D01*
X8354Y7509D01*
X8394Y7449D01*
X8453Y7409D01*
X8474Y7405D01*
Y7529D01*
D02*
G37*
G36*
X1613Y9153D02*
X1490D01*
X1494Y9133D01*
X1534Y9073D01*
X1593Y9033D01*
X1613Y9029D01*
Y9153D01*
D02*
G37*
G36*
X616Y10344D02*
X493D01*
Y10220D01*
X513Y10224D01*
X573Y10264D01*
X612Y10323D01*
X616Y10344D01*
D02*
G37*
G36*
X10629Y10393D02*
X10506D01*
X10510Y10373D01*
X10549Y10313D01*
X10609Y10273D01*
X10629Y10269D01*
Y10393D01*
D02*
G37*
G36*
X6369Y10311D02*
Y10188D01*
X6492D01*
X6488Y10208D01*
X6449Y10268D01*
X6389Y10307D01*
X6369Y10311D01*
D02*
G37*
G36*
X393Y10344D02*
X269D01*
X273Y10323D01*
X313Y10264D01*
X373Y10224D01*
X393Y10220D01*
Y10344D01*
D02*
G37*
G36*
X10853Y10393D02*
X10729D01*
Y10269D01*
X10749Y10273D01*
X10809Y10313D01*
X10849Y10373D01*
X10853Y10393D01*
D02*
G37*
G36*
X393Y10567D02*
X373Y10563D01*
X313Y10523D01*
X273Y10464D01*
X269Y10444D01*
X393D01*
Y10567D01*
D02*
G37*
G36*
X493D02*
Y10444D01*
X616D01*
X612Y10464D01*
X573Y10523D01*
X513Y10563D01*
X493Y10567D01*
D02*
G37*
G36*
X11850Y10413D02*
X11726D01*
X11730Y10392D01*
X11770Y10333D01*
X11829Y10293D01*
X11850Y10289D01*
Y10413D01*
D02*
G37*
G36*
X12073D02*
X11950D01*
Y10289D01*
X11970Y10293D01*
X12029Y10333D01*
X12069Y10392D01*
X12073Y10413D01*
D02*
G37*
G36*
X15531Y10078D02*
X15407D01*
X15411Y10058D01*
X15451Y9998D01*
X15511Y9958D01*
X15531Y9954D01*
Y10078D01*
D02*
G37*
G36*
X15754D02*
X15631D01*
Y9954D01*
X15651Y9958D01*
X15710Y9998D01*
X15750Y10058D01*
X15754Y10078D01*
D02*
G37*
G36*
X5068Y9986D02*
X5048Y9982D01*
X4988Y9943D01*
X4949Y9883D01*
X4945Y9863D01*
X5068D01*
Y9986D01*
D02*
G37*
G36*
X5168D02*
Y9863D01*
X5292D01*
X5288Y9883D01*
X5248Y9943D01*
X5188Y9982D01*
X5168Y9986D01*
D02*
G37*
G36*
X6269Y10088D02*
X6145D01*
X6149Y10068D01*
X6189Y10008D01*
X6249Y9968D01*
X6269Y9964D01*
Y10088D01*
D02*
G37*
G36*
X15631Y10301D02*
Y10178D01*
X15754D01*
X15750Y10198D01*
X15710Y10258D01*
X15651Y10297D01*
X15631Y10301D01*
D02*
G37*
G36*
X6269Y10311D02*
X6249Y10307D01*
X6189Y10268D01*
X6149Y10208D01*
X6145Y10188D01*
X6269D01*
Y10311D01*
D02*
G37*
G36*
X6492Y10088D02*
X6369D01*
Y9964D01*
X6389Y9968D01*
X6449Y10008D01*
X6488Y10068D01*
X6492Y10088D01*
D02*
G37*
G36*
X15531Y10301D02*
X15511Y10297D01*
X15451Y10258D01*
X15411Y10198D01*
X15407Y10178D01*
X15531D01*
Y10301D01*
D02*
G37*
G36*
X5305Y10884D02*
X5182D01*
Y10761D01*
X5202Y10765D01*
X5261Y10805D01*
X5301Y10864D01*
X5305Y10884D01*
D02*
G37*
G36*
X11138Y11269D02*
X10791D01*
X10795Y11249D01*
X10835Y11189D01*
X10894Y11149D01*
X10931Y11142D01*
Y11091D01*
X10904Y11086D01*
X10845Y11046D01*
X10805Y10986D01*
X10801Y10966D01*
X11148D01*
X11144Y10986D01*
X11104Y11046D01*
X11045Y11086D01*
X11007Y11093D01*
Y11144D01*
X11035Y11149D01*
X11094Y11189D01*
X11134Y11249D01*
X11138Y11269D01*
D02*
G37*
G36*
X11148Y10866D02*
X11024D01*
Y10743D01*
X11045Y10747D01*
X11104Y10786D01*
X11144Y10846D01*
X11148Y10866D01*
D02*
G37*
G36*
X5082Y10884D02*
X4958D01*
X4962Y10864D01*
X5002Y10805D01*
X5061Y10765D01*
X5082Y10761D01*
Y10884D01*
D02*
G37*
G36*
X15541Y11102D02*
X15417D01*
X15421Y11081D01*
X15461Y11022D01*
X15520Y10982D01*
X15541Y10978D01*
Y11102D01*
D02*
G37*
G36*
X5182Y11108D02*
Y10984D01*
X5305D01*
X5301Y11004D01*
X5261Y11064D01*
X5202Y11104D01*
X5182Y11108D01*
D02*
G37*
G36*
X14222Y11210D02*
X14098D01*
X14102Y11190D01*
X14142Y11130D01*
X14201Y11090D01*
X14222Y11086D01*
Y11210D01*
D02*
G37*
G36*
X15764Y11102D02*
X15641D01*
Y10978D01*
X15661Y10982D01*
X15720Y11022D01*
X15760Y11081D01*
X15764Y11102D01*
D02*
G37*
G36*
X5082Y11108D02*
X5061Y11104D01*
X5002Y11064D01*
X4962Y11004D01*
X4958Y10984D01*
X5082D01*
Y11108D01*
D02*
G37*
G36*
X10629Y10616D02*
X10609Y10612D01*
X10549Y10573D01*
X10510Y10513D01*
X10506Y10493D01*
X10629D01*
Y10616D01*
D02*
G37*
G36*
X10729D02*
Y10493D01*
X10853D01*
X10849Y10513D01*
X10809Y10573D01*
X10749Y10612D01*
X10729Y10616D01*
D02*
G37*
G36*
X3985Y10580D02*
X3862D01*
X3866Y10560D01*
X3906Y10500D01*
X3965Y10460D01*
X3985Y10456D01*
Y10580D01*
D02*
G37*
G36*
X4209D02*
X4085D01*
Y10456D01*
X4106Y10460D01*
X4165Y10500D01*
X4205Y10560D01*
X4209Y10580D01*
D02*
G37*
G36*
X11850Y10636D02*
X11829Y10632D01*
X11770Y10592D01*
X11730Y10533D01*
X11726Y10513D01*
X11850D01*
Y10636D01*
D02*
G37*
G36*
X4085Y10803D02*
Y10680D01*
X4209D01*
X4205Y10700D01*
X4165Y10760D01*
X4106Y10799D01*
X4085Y10803D01*
D02*
G37*
G36*
X10924Y10866D02*
X10801D01*
X10805Y10846D01*
X10845Y10786D01*
X10904Y10747D01*
X10924Y10743D01*
Y10866D01*
D02*
G37*
G36*
X11950Y10636D02*
Y10513D01*
X12073D01*
X12069Y10533D01*
X12029Y10592D01*
X11970Y10632D01*
X11950Y10636D01*
D02*
G37*
G36*
X3985Y10803D02*
X3965Y10799D01*
X3906Y10760D01*
X3866Y10700D01*
X3862Y10680D01*
X3985D01*
Y10803D01*
D02*
G37*
G36*
X12117Y9918D02*
Y9794D01*
X12240D01*
X12236Y9814D01*
X12197Y9874D01*
X12137Y9914D01*
X12117Y9918D01*
D02*
G37*
G36*
X15541Y9514D02*
X15520Y9510D01*
X15461Y9470D01*
X15421Y9411D01*
X15417Y9391D01*
X15541D01*
Y9514D01*
D02*
G37*
G36*
X15641D02*
Y9391D01*
X15764D01*
X15760Y9411D01*
X15720Y9470D01*
X15661Y9510D01*
X15641Y9514D01*
D02*
G37*
G36*
X14674Y9468D02*
X14551D01*
X14555Y9448D01*
X14595Y9388D01*
X14654Y9348D01*
X14674Y9344D01*
Y9468D01*
D02*
G37*
G36*
X14898D02*
X14774D01*
Y9344D01*
X14795Y9348D01*
X14854Y9388D01*
X14894Y9448D01*
X14898Y9468D01*
D02*
G37*
G36*
X5816Y9517D02*
X5693D01*
X5697Y9497D01*
X5736Y9437D01*
X5796Y9397D01*
X5816Y9393D01*
Y9517D01*
D02*
G37*
G36*
X3116Y9546D02*
X2993D01*
Y9423D01*
X3013Y9427D01*
X3073Y9467D01*
X3112Y9526D01*
X3116Y9546D01*
D02*
G37*
G36*
X8431Y9556D02*
X8308D01*
Y9433D01*
X8328Y9437D01*
X8388Y9477D01*
X8427Y9536D01*
X8431Y9556D01*
D02*
G37*
G36*
X6040Y9517D02*
X5916D01*
Y9393D01*
X5936Y9397D01*
X5996Y9437D01*
X6036Y9497D01*
X6040Y9517D01*
D02*
G37*
G36*
X2893Y9546D02*
X2769D01*
X2773Y9526D01*
X2813Y9467D01*
X2873Y9427D01*
X2893Y9423D01*
Y9546D01*
D02*
G37*
G36*
X6870Y9422D02*
X6816Y9411D01*
X6771Y9381D01*
X6740Y9335D01*
X6735Y9308D01*
X5579Y8152D01*
X5527Y8142D01*
X5481Y8111D01*
X5451Y8066D01*
X5440Y8012D01*
X5451Y7958D01*
X5481Y7912D01*
X5527Y7882D01*
X5581Y7871D01*
X5624Y7880D01*
X5624Y7880D01*
X5653Y7856D01*
X5663Y7841D01*
X5657Y7808D01*
X5667Y7754D01*
X5698Y7709D01*
X5743Y7678D01*
X5797Y7667D01*
X5851Y7678D01*
X5897Y7709D01*
X5927Y7754D01*
X5937Y7806D01*
X7272Y9141D01*
X7274Y9141D01*
X7327Y9152D01*
X7373Y9182D01*
X7403Y9228D01*
X7414Y9281D01*
X7403Y9335D01*
X7373Y9381D01*
X7327Y9411D01*
X7274Y9422D01*
X7220Y9411D01*
X7174Y9381D01*
X7144Y9335D01*
X7134Y9287D01*
X7030Y9182D01*
X6991Y9214D01*
X7000Y9228D01*
X7011Y9281D01*
X7000Y9335D01*
X6969Y9381D01*
X6924Y9411D01*
X6870Y9422D01*
D02*
G37*
G36*
X15541Y9291D02*
X15417D01*
X15421Y9270D01*
X15461Y9211D01*
X15520Y9171D01*
X15541Y9167D01*
Y9291D01*
D02*
G37*
G36*
X1837Y9153D02*
X1713D01*
Y9029D01*
X1734Y9033D01*
X1793Y9073D01*
X1833Y9133D01*
X1837Y9153D01*
D02*
G37*
G36*
X10325Y9392D02*
X10271Y9382D01*
X10225Y9351D01*
X10195Y9306D01*
X10184Y9252D01*
X10195Y9198D01*
X10224Y9154D01*
Y9057D01*
X9866D01*
X9835Y9094D01*
X9825Y9148D01*
X9794Y9194D01*
X9749Y9224D01*
X9695Y9235D01*
X9641Y9224D01*
X9596Y9194D01*
X9565Y9148D01*
X9554Y9094D01*
X9524Y9057D01*
X9441D01*
Y9067D01*
X9013D01*
X8986Y9117D01*
X8988Y9119D01*
X8999Y9173D01*
X8988Y9227D01*
X8958Y9273D01*
X8912Y9303D01*
X8858Y9314D01*
X8805Y9303D01*
X8759Y9273D01*
X8728Y9227D01*
X8718Y9173D01*
X8728Y9119D01*
X8730Y9117D01*
X8703Y9067D01*
X8593D01*
X8567Y9117D01*
X8575Y9129D01*
X8585Y9183D01*
X8575Y9237D01*
X8544Y9282D01*
X8499Y9313D01*
X8445Y9324D01*
X8391Y9313D01*
X8346Y9282D01*
X8315Y9237D01*
X8304Y9183D01*
X8315Y9129D01*
X8323Y9117D01*
X8296Y9067D01*
X8226D01*
Y8452D01*
X8265D01*
X8283Y8410D01*
X8283Y8402D01*
Y8210D01*
X8533D01*
X8783D01*
Y8402D01*
X8783Y8410D01*
X8789Y8422D01*
X8820Y8447D01*
X8872Y8438D01*
X8884Y8409D01*
X8884Y8402D01*
Y8209D01*
X9134D01*
X9384D01*
Y8380D01*
X9426Y8420D01*
X9458Y8414D01*
X9465Y8400D01*
X9465Y8392D01*
Y8200D01*
X9715D01*
X9965D01*
Y8392D01*
X9965Y8400D01*
X9983Y8442D01*
X10037D01*
X10055Y8400D01*
X10055Y8392D01*
Y8200D01*
X10305D01*
X10555D01*
Y8392D01*
X10555Y8400D01*
X10573Y8442D01*
X10613D01*
Y9057D01*
X10425D01*
Y9154D01*
X10455Y9198D01*
X10465Y9252D01*
X10455Y9306D01*
X10424Y9351D01*
X10379Y9382D01*
X10325Y9392D01*
D02*
G37*
G36*
X15764Y9291D02*
X15641D01*
Y9167D01*
X15661Y9171D01*
X15720Y9211D01*
X15760Y9270D01*
X15764Y9291D01*
D02*
G37*
G36*
X1613Y9376D02*
X1593Y9372D01*
X1534Y9332D01*
X1494Y9273D01*
X1490Y9253D01*
X1613D01*
Y9376D01*
D02*
G37*
G36*
X1713D02*
Y9253D01*
X1837D01*
X1833Y9273D01*
X1793Y9332D01*
X1734Y9372D01*
X1713Y9376D01*
D02*
G37*
G36*
X413Y9298D02*
X392Y9294D01*
X333Y9254D01*
X293Y9194D01*
X289Y9174D01*
X413D01*
Y9298D01*
D02*
G37*
G36*
X513D02*
Y9174D01*
X636D01*
X632Y9194D01*
X592Y9254D01*
X533Y9294D01*
X513Y9298D01*
D02*
G37*
G36*
X2893Y9770D02*
X2873Y9766D01*
X2813Y9726D01*
X2773Y9667D01*
X2769Y9646D01*
X2893D01*
Y9770D01*
D02*
G37*
G36*
X2993D02*
Y9646D01*
X3116D01*
X3112Y9667D01*
X3073Y9726D01*
X3013Y9766D01*
X2993Y9770D01*
D02*
G37*
G36*
X5068Y9763D02*
X4945D01*
X4949Y9743D01*
X4988Y9683D01*
X5048Y9644D01*
X5068Y9639D01*
Y9763D01*
D02*
G37*
G36*
X5292D02*
X5168D01*
Y9639D01*
X5188Y9644D01*
X5248Y9683D01*
X5288Y9743D01*
X5292Y9763D01*
D02*
G37*
G36*
X8208Y9780D02*
X8188Y9776D01*
X8128Y9736D01*
X8088Y9676D01*
X8084Y9656D01*
X8208D01*
Y9780D01*
D02*
G37*
G36*
X10985Y9918D02*
Y9794D01*
X11109D01*
X11105Y9814D01*
X11065Y9874D01*
X11005Y9914D01*
X10985Y9918D01*
D02*
G37*
G36*
X12017D02*
X11997Y9914D01*
X11937Y9874D01*
X11897Y9814D01*
X11893Y9794D01*
X12017D01*
Y9918D01*
D02*
G37*
G36*
X8308Y9780D02*
Y9656D01*
X8431D01*
X8427Y9676D01*
X8388Y9736D01*
X8328Y9776D01*
X8308Y9780D01*
D02*
G37*
G36*
X10885Y9918D02*
X10865Y9914D01*
X10805Y9874D01*
X10766Y9814D01*
X10762Y9794D01*
X10885D01*
Y9918D01*
D02*
G37*
G36*
X14774Y9691D02*
Y9568D01*
X14898D01*
X14894Y9588D01*
X14854Y9647D01*
X14795Y9687D01*
X14774Y9691D01*
D02*
G37*
G36*
X10885Y9694D02*
X10762D01*
X10766Y9674D01*
X10805Y9614D01*
X10865Y9575D01*
X10885Y9571D01*
Y9694D01*
D02*
G37*
G36*
X8208Y9556D02*
X8084D01*
X8088Y9536D01*
X8127Y9478D01*
X8124Y9470D01*
X8103Y9433D01*
X8061Y9442D01*
X8007Y9431D01*
X7962Y9401D01*
X7931Y9355D01*
X7921Y9301D01*
X7931Y9247D01*
X7962Y9202D01*
X7971Y9196D01*
Y9115D01*
X7921Y9088D01*
X7908Y9096D01*
X7854Y9107D01*
X7808Y9098D01*
X7787Y9106D01*
X7758Y9128D01*
Y9164D01*
X7787Y9208D01*
X7798Y9262D01*
X7787Y9316D01*
X7757Y9361D01*
X7711Y9392D01*
X7657Y9402D01*
X7604Y9392D01*
X7558Y9361D01*
X7528Y9316D01*
X7517Y9262D01*
X7528Y9208D01*
X7557Y9164D01*
Y9136D01*
X6947Y8526D01*
X6925Y8493D01*
X6917Y8455D01*
Y7637D01*
X6888Y7593D01*
X6877Y7539D01*
X6888Y7486D01*
X6918Y7440D01*
X6964Y7410D01*
X7018Y7399D01*
X7071Y7410D01*
X7117Y7440D01*
X7148Y7486D01*
X7158Y7539D01*
X7148Y7593D01*
X7118Y7637D01*
Y8413D01*
X7666Y8961D01*
X7719Y8943D01*
X7725Y8913D01*
X7754Y8869D01*
Y7236D01*
X7429Y6912D01*
X7377Y6901D01*
X7332Y6871D01*
X7301Y6825D01*
X7291Y6772D01*
X7301Y6718D01*
X7332Y6672D01*
X7377Y6642D01*
X7431Y6631D01*
X7485Y6642D01*
X7530Y6672D01*
X7561Y6718D01*
X7571Y6770D01*
X7921Y7119D01*
X7940Y7116D01*
X7971Y7102D01*
Y6597D01*
X7518Y6144D01*
X7466Y6134D01*
X7420Y6103D01*
X7390Y6058D01*
X7379Y6004D01*
X7390Y5950D01*
X7420Y5905D01*
X7466Y5874D01*
X7520Y5863D01*
X7573Y5874D01*
X7619Y5905D01*
X7649Y5950D01*
X7660Y6002D01*
X8142Y6484D01*
X8164Y6517D01*
X8171Y6555D01*
Y9218D01*
X8191Y9247D01*
X8202Y9301D01*
X8191Y9355D01*
X8165Y9394D01*
X8179Y9422D01*
X8192Y9436D01*
X8208Y9433D01*
Y9556D01*
D02*
G37*
G36*
X14674Y9691D02*
X14654Y9687D01*
X14595Y9647D01*
X14555Y9588D01*
X14551Y9568D01*
X14674D01*
Y9691D01*
D02*
G37*
G36*
X11109Y9694D02*
X10985D01*
Y9571D01*
X11005Y9575D01*
X11065Y9614D01*
X11105Y9674D01*
X11109Y9694D01*
D02*
G37*
G36*
X5816Y9740D02*
X5796Y9736D01*
X5736Y9697D01*
X5697Y9637D01*
X5693Y9617D01*
X5816D01*
Y9740D01*
D02*
G37*
G36*
X5916D02*
Y9617D01*
X6040D01*
X6036Y9637D01*
X5996Y9697D01*
X5936Y9736D01*
X5916Y9740D01*
D02*
G37*
G36*
X12017Y9694D02*
X11893D01*
X11897Y9674D01*
X11937Y9614D01*
X11997Y9575D01*
X12017Y9571D01*
Y9694D01*
D02*
G37*
G36*
X12240D02*
X12117D01*
Y9571D01*
X12137Y9575D01*
X12197Y9614D01*
X12236Y9674D01*
X12240Y9694D01*
D02*
G37*
G36*
X13042Y1551D02*
Y1428D01*
X13166D01*
X13162Y1448D01*
X13122Y1508D01*
X13062Y1547D01*
X13042Y1551D01*
D02*
G37*
G36*
X11525Y1561D02*
X11505Y1557D01*
X11445Y1518D01*
X11405Y1458D01*
X11401Y1438D01*
X11525D01*
Y1561D01*
D02*
G37*
G36*
X9213Y1794D02*
X9146Y1785D01*
X9084Y1759D01*
X9030Y1718D01*
X8989Y1664D01*
X8963Y1602D01*
X8954Y1535D01*
X8963Y1469D01*
X8989Y1406D01*
X9015Y1373D01*
X8994Y1340D01*
X8983Y1332D01*
X8967Y1335D01*
Y1211D01*
X9091D01*
X9087Y1232D01*
X9063Y1267D01*
X9097Y1306D01*
X9146Y1286D01*
X9213Y1277D01*
X9279Y1286D01*
X9342Y1312D01*
X9395Y1353D01*
X9436Y1406D01*
X9462Y1469D01*
X9471Y1535D01*
X9462Y1602D01*
X9436Y1664D01*
X9395Y1718D01*
X9342Y1759D01*
X9279Y1785D01*
X9213Y1794D01*
D02*
G37*
G36*
X12942Y1551D02*
X12922Y1547D01*
X12862Y1508D01*
X12823Y1448D01*
X12819Y1428D01*
X12942D01*
Y1551D01*
D02*
G37*
G36*
X11625Y1561D02*
Y1438D01*
X11748D01*
X11744Y1458D01*
X11705Y1518D01*
X11645Y1557D01*
X11625Y1561D01*
D02*
G37*
G36*
X6121Y1810D02*
X5998D01*
X6002Y1790D01*
X6042Y1731D01*
X6101Y1691D01*
X6121Y1687D01*
Y1810D01*
D02*
G37*
G36*
X6345D02*
X6221D01*
Y1687D01*
X6241Y1691D01*
X6301Y1731D01*
X6341Y1790D01*
X6345Y1810D01*
D02*
G37*
G36*
X10403Y1601D02*
X10383Y1597D01*
X10323Y1557D01*
X10283Y1497D01*
X10279Y1477D01*
X10403D01*
Y1601D01*
D02*
G37*
G36*
X10503D02*
Y1477D01*
X10626D01*
X10622Y1497D01*
X10582Y1557D01*
X10523Y1597D01*
X10503Y1601D01*
D02*
G37*
G36*
X11525Y1338D02*
X11401D01*
X11405Y1318D01*
X11445Y1258D01*
X11505Y1218D01*
X11525Y1214D01*
Y1338D01*
D02*
G37*
G36*
X11748D02*
X11625D01*
Y1214D01*
X11645Y1218D01*
X11705Y1258D01*
X11744Y1318D01*
X11748Y1338D01*
D02*
G37*
G36*
X13166Y1328D02*
X13042D01*
Y1204D01*
X13062Y1208D01*
X13122Y1248D01*
X13162Y1308D01*
X13166Y1328D01*
D02*
G37*
G36*
X8867Y1335D02*
X8847Y1331D01*
X8788Y1291D01*
X8748Y1232D01*
X8744Y1211D01*
X8867D01*
Y1335D01*
D02*
G37*
G36*
X6072Y1345D02*
X6052Y1341D01*
X5992Y1301D01*
X5953Y1241D01*
X5949Y1221D01*
X6072D01*
Y1345D01*
D02*
G37*
G36*
X10626Y1377D02*
X10503D01*
Y1254D01*
X10523Y1258D01*
X10582Y1297D01*
X10622Y1357D01*
X10626Y1377D01*
D02*
G37*
G36*
X7638Y1794D02*
X7571Y1785D01*
X7509Y1759D01*
X7455Y1718D01*
X7414Y1664D01*
X7388Y1602D01*
X7380Y1535D01*
X7388Y1469D01*
X7414Y1406D01*
X7455Y1353D01*
X7509Y1312D01*
X7571Y1286D01*
X7638Y1277D01*
X7705Y1286D01*
X7767Y1312D01*
X7820Y1353D01*
X7861Y1406D01*
X7887Y1469D01*
X7896Y1535D01*
X7887Y1602D01*
X7861Y1664D01*
X7820Y1718D01*
X7767Y1759D01*
X7705Y1785D01*
X7638Y1794D01*
D02*
G37*
G36*
X6172Y1345D02*
Y1221D01*
X6296D01*
X6292Y1241D01*
X6252Y1301D01*
X6192Y1341D01*
X6172Y1345D01*
D02*
G37*
G36*
X10403Y1377D02*
X10279D01*
X10283Y1357D01*
X10323Y1297D01*
X10383Y1258D01*
X10403Y1254D01*
Y1377D01*
D02*
G37*
G36*
X5354Y1840D02*
X5230D01*
X5234Y1820D01*
X5274Y1760D01*
X5333Y1720D01*
X5354Y1716D01*
Y1840D01*
D02*
G37*
G36*
X2568Y2162D02*
X2548Y2158D01*
X2488Y2118D01*
X2449Y2058D01*
X2445Y2038D01*
X2568D01*
Y2162D01*
D02*
G37*
G36*
X2668D02*
Y2038D01*
X2792D01*
X2788Y2058D01*
X2748Y2118D01*
X2688Y2158D01*
X2668Y2162D01*
D02*
G37*
G36*
X7146Y2146D02*
X7125Y2142D01*
X7066Y2102D01*
X7026Y2042D01*
X7022Y2022D01*
X7146D01*
Y2146D01*
D02*
G37*
G36*
X7246D02*
Y2022D01*
X7369D01*
X7365Y2042D01*
X7325Y2102D01*
X7266Y2142D01*
X7246Y2146D01*
D02*
G37*
G36*
X10787Y2204D02*
X10663D01*
X10667Y2184D01*
X10707Y2124D01*
X10766Y2084D01*
X10787Y2080D01*
Y2204D01*
D02*
G37*
G36*
X10887Y2427D02*
Y2304D01*
X11010D01*
X11006Y2324D01*
X10966Y2384D01*
X10907Y2423D01*
X10887Y2427D01*
D02*
G37*
G36*
X15472Y2637D02*
X15348D01*
X15352Y2617D01*
X15392Y2557D01*
X15451Y2518D01*
X15472Y2514D01*
Y2637D01*
D02*
G37*
G36*
X11010Y2204D02*
X10887D01*
Y2080D01*
X10907Y2084D01*
X10966Y2124D01*
X11006Y2184D01*
X11010Y2204D01*
D02*
G37*
G36*
X10787Y2427D02*
X10766Y2423D01*
X10707Y2384D01*
X10667Y2324D01*
X10663Y2304D01*
X10787D01*
Y2427D01*
D02*
G37*
G36*
X7369Y1922D02*
X7246D01*
Y1799D01*
X7266Y1803D01*
X7325Y1842D01*
X7365Y1902D01*
X7369Y1922D01*
D02*
G37*
G36*
X2568Y1938D02*
X2445D01*
X2449Y1918D01*
X2488Y1858D01*
X2548Y1819D01*
X2568Y1815D01*
Y1938D01*
D02*
G37*
G36*
X5577Y1840D02*
X5454D01*
Y1716D01*
X5474Y1720D01*
X5533Y1760D01*
X5573Y1820D01*
X5577Y1840D01*
D02*
G37*
G36*
X7146Y1922D02*
X7022D01*
X7026Y1902D01*
X7066Y1842D01*
X7125Y1803D01*
X7146Y1799D01*
Y1922D01*
D02*
G37*
G36*
X2792Y1938D02*
X2668D01*
Y1815D01*
X2688Y1819D01*
X2748Y1858D01*
X2788Y1918D01*
X2792Y1938D01*
D02*
G37*
G36*
X5354Y2063D02*
X5333Y2059D01*
X5274Y2019D01*
X5234Y1960D01*
X5230Y1940D01*
X5354D01*
Y2063D01*
D02*
G37*
G36*
X5454D02*
Y1940D01*
X5577D01*
X5573Y1960D01*
X5533Y2019D01*
X5474Y2059D01*
X5454Y2063D01*
D02*
G37*
G36*
X6121Y2034D02*
X6101Y2030D01*
X6042Y1990D01*
X6002Y1930D01*
X5998Y1910D01*
X6121D01*
Y2034D01*
D02*
G37*
G36*
X6221D02*
Y1910D01*
X6345D01*
X6341Y1930D01*
X6301Y1990D01*
X6241Y2030D01*
X6221Y2034D01*
D02*
G37*
G36*
X10597Y363D02*
X10473D01*
Y240D01*
X10493Y244D01*
X10553Y284D01*
X10593Y343D01*
X10597Y363D01*
D02*
G37*
G36*
X5354Y508D02*
X5333Y504D01*
X5274Y464D01*
X5234Y405D01*
X5230Y385D01*
X5354D01*
Y508D01*
D02*
G37*
G36*
X13146Y354D02*
X13022D01*
Y230D01*
X13043Y234D01*
X13102Y274D01*
X13142Y333D01*
X13146Y354D01*
D02*
G37*
G36*
X10373Y363D02*
X10250D01*
X10254Y343D01*
X10294Y284D01*
X10353Y244D01*
X10373Y240D01*
Y363D01*
D02*
G37*
G36*
X5454Y508D02*
Y385D01*
X5577D01*
X5573Y405D01*
X5533Y464D01*
X5474Y504D01*
X5454Y508D01*
D02*
G37*
G36*
X11544Y577D02*
X11524Y573D01*
X11465Y533D01*
X11425Y474D01*
X11421Y454D01*
X11544D01*
Y577D01*
D02*
G37*
G36*
X11644D02*
Y454D01*
X11768D01*
X11764Y474D01*
X11724Y533D01*
X11665Y573D01*
X11644Y577D01*
D02*
G37*
G36*
X6062Y538D02*
X6042Y534D01*
X5982Y494D01*
X5943Y434D01*
X5939Y414D01*
X6062D01*
Y538D01*
D02*
G37*
G36*
X6162D02*
Y414D01*
X6286D01*
X6282Y434D01*
X6242Y494D01*
X6182Y534D01*
X6162Y538D01*
D02*
G37*
G36*
X3044Y609D02*
X2696D01*
Y561D01*
X2709Y458D01*
X2749Y362D01*
X2813Y279D01*
X2895Y216D01*
X2991Y176D01*
X3044Y169D01*
Y609D01*
D02*
G37*
G36*
X3493D02*
X3144D01*
Y169D01*
X3198Y176D01*
X3294Y216D01*
X3376Y279D01*
X3440Y362D01*
X3480Y458D01*
X3493Y561D01*
Y609D01*
D02*
G37*
G36*
X5354Y285D02*
X5230D01*
X5234Y264D01*
X5274Y205D01*
X5333Y165D01*
X5354Y161D01*
Y285D01*
D02*
G37*
G36*
X5577D02*
X5454D01*
Y161D01*
X5474Y165D01*
X5533Y205D01*
X5573Y264D01*
X5577Y285D01*
D02*
G37*
G36*
X6062Y314D02*
X5939D01*
X5943Y294D01*
X5982Y234D01*
X6042Y195D01*
X6062Y191D01*
Y314D01*
D02*
G37*
G36*
X11768Y354D02*
X11644D01*
Y230D01*
X11665Y234D01*
X11724Y274D01*
X11764Y333D01*
X11768Y354D01*
D02*
G37*
G36*
X12922D02*
X12799D01*
X12803Y333D01*
X12843Y274D01*
X12902Y234D01*
X12922Y230D01*
Y354D01*
D02*
G37*
G36*
X6286Y314D02*
X6162D01*
Y191D01*
X6182Y195D01*
X6242Y234D01*
X6282Y294D01*
X6286Y314D01*
D02*
G37*
G36*
X11544Y354D02*
X11421D01*
X11425Y333D01*
X11465Y274D01*
X11524Y234D01*
X11544Y230D01*
Y354D01*
D02*
G37*
G36*
X12922Y577D02*
X12902Y573D01*
X12843Y533D01*
X12803Y474D01*
X12799Y454D01*
X12922D01*
Y577D01*
D02*
G37*
G36*
X6072Y1121D02*
X5949D01*
X5953Y1101D01*
X5992Y1042D01*
X6052Y1002D01*
X6072Y998D01*
Y1121D01*
D02*
G37*
G36*
X6296D02*
X6172D01*
Y998D01*
X6192Y1002D01*
X6252Y1042D01*
X6292Y1101D01*
X6296Y1121D01*
D02*
G37*
G36*
X8867Y1111D02*
X8744D01*
X8748Y1091D01*
X8788Y1032D01*
X8847Y992D01*
X8867Y988D01*
Y1111D01*
D02*
G37*
G36*
X9091D02*
X8967D01*
Y988D01*
X8988Y992D01*
X9047Y1032D01*
X9087Y1091D01*
X9091Y1111D01*
D02*
G37*
G36*
X7905Y1296D02*
X7885Y1292D01*
X7825Y1252D01*
X7786Y1192D01*
X7782Y1172D01*
X7905D01*
Y1296D01*
D02*
G37*
G36*
X5404Y1299D02*
Y1176D01*
X5527D01*
X5523Y1196D01*
X5483Y1255D01*
X5424Y1295D01*
X5404Y1299D01*
D02*
G37*
G36*
X12942Y1328D02*
X12819D01*
X12823Y1308D01*
X12862Y1248D01*
X12922Y1208D01*
X12942Y1204D01*
Y1328D01*
D02*
G37*
G36*
X8005Y1296D02*
Y1172D01*
X8129D01*
X8125Y1192D01*
X8085Y1252D01*
X8025Y1292D01*
X8005Y1296D01*
D02*
G37*
G36*
X5304Y1299D02*
X5283Y1295D01*
X5224Y1255D01*
X5184Y1196D01*
X5180Y1176D01*
X5304D01*
Y1299D01*
D02*
G37*
G36*
X10473Y587D02*
Y463D01*
X10597D01*
X10593Y484D01*
X10553Y543D01*
X10493Y583D01*
X10473Y587D01*
D02*
G37*
G36*
X3044Y1150D02*
X2991Y1143D01*
X2895Y1103D01*
X2813Y1040D01*
X2749Y957D01*
X2709Y861D01*
X2696Y758D01*
Y709D01*
X3044D01*
Y1150D01*
D02*
G37*
G36*
X13022Y577D02*
Y454D01*
X13146D01*
X13142Y474D01*
X13102Y533D01*
X13043Y573D01*
X13022Y577D01*
D02*
G37*
G36*
X10373Y587D02*
X10353Y583D01*
X10294Y543D01*
X10254Y484D01*
X10250Y463D01*
X10373D01*
Y587D01*
D02*
G37*
G36*
X3144Y1150D02*
Y709D01*
X3493D01*
Y758D01*
X3480Y861D01*
X3440Y957D01*
X3376Y1040D01*
X3294Y1103D01*
X3198Y1143D01*
X3144Y1150D01*
D02*
G37*
G36*
X5304Y1076D02*
X5180D01*
X5184Y1056D01*
X5224Y996D01*
X5283Y956D01*
X5304Y952D01*
Y1076D01*
D02*
G37*
G36*
X5527D02*
X5404D01*
Y952D01*
X5424Y956D01*
X5483Y996D01*
X5523Y1056D01*
X5527Y1076D01*
D02*
G37*
G36*
X7905Y1072D02*
X7782D01*
X7786Y1052D01*
X7825Y992D01*
X7885Y953D01*
X7905Y949D01*
Y1072D01*
D02*
G37*
G36*
X8129D02*
X8005D01*
Y949D01*
X8025Y953D01*
X8085Y992D01*
X8125Y1052D01*
X8129Y1072D01*
D02*
G37*
G36*
X13690Y5432D02*
X13567D01*
X13571Y5412D01*
X13610Y5353D01*
X13670Y5313D01*
X13690Y5309D01*
Y5432D01*
D02*
G37*
G36*
X13914D02*
X13790D01*
Y5309D01*
X13810Y5313D01*
X13870Y5353D01*
X13910Y5412D01*
X13914Y5432D01*
D02*
G37*
G36*
X15621Y5223D02*
Y5099D01*
X15744D01*
X15740Y5119D01*
X15701Y5179D01*
X15641Y5219D01*
X15621Y5223D01*
D02*
G37*
G36*
X14744Y6120D02*
X14547D01*
X14429Y6104D01*
X14319Y6059D01*
X14224Y5986D01*
X14152Y5892D01*
X14106Y5782D01*
X14091Y5663D01*
X14106Y5545D01*
X14152Y5435D01*
X14224Y5340D01*
X14319Y5268D01*
X14429Y5222D01*
X14547Y5207D01*
X14744D01*
X14862Y5222D01*
X14972Y5268D01*
X15067Y5340D01*
X15140Y5435D01*
X15185Y5545D01*
X15201Y5663D01*
X15185Y5782D01*
X15140Y5892D01*
X15067Y5986D01*
X14972Y6059D01*
X14862Y6104D01*
X14744Y6120D01*
D02*
G37*
G36*
X650Y5928D02*
X578Y5918D01*
X511Y5890D01*
X453Y5846D01*
X409Y5789D01*
X381Y5722D01*
X372Y5650D01*
X381Y5578D01*
X409Y5511D01*
X453Y5453D01*
X511Y5409D01*
X578Y5381D01*
X650Y5372D01*
X722Y5381D01*
X789Y5409D01*
X846Y5453D01*
X890Y5511D01*
X918Y5578D01*
X928Y5650D01*
X918Y5722D01*
X890Y5789D01*
X846Y5846D01*
X789Y5890D01*
X722Y5918D01*
X650Y5928D01*
D02*
G37*
G36*
X3582Y5669D02*
X3458D01*
X3462Y5648D01*
X3502Y5589D01*
X3562Y5549D01*
X3582Y5545D01*
Y5669D01*
D02*
G37*
G36*
X3805D02*
X3682D01*
Y5545D01*
X3702Y5549D01*
X3762Y5589D01*
X3801Y5648D01*
X3805Y5669D01*
D02*
G37*
G36*
X13690Y5656D02*
X13670Y5652D01*
X13610Y5612D01*
X13571Y5552D01*
X13567Y5532D01*
X13690D01*
Y5656D01*
D02*
G37*
G36*
X13790D02*
Y5532D01*
X13914D01*
X13910Y5552D01*
X13870Y5612D01*
X13810Y5652D01*
X13790Y5656D01*
D02*
G37*
G36*
X15521Y4999D02*
X15397D01*
X15401Y4979D01*
X15441Y4920D01*
X15501Y4880D01*
X15521Y4876D01*
Y4999D01*
D02*
G37*
G36*
X15744D02*
X15621D01*
Y4876D01*
X15641Y4880D01*
X15701Y4920D01*
X15740Y4979D01*
X15744Y4999D01*
D02*
G37*
G36*
X8254Y4930D02*
X8131D01*
Y4807D01*
X8151Y4811D01*
X8210Y4851D01*
X8250Y4910D01*
X8254Y4930D01*
D02*
G37*
G36*
X8031D02*
X7907D01*
X7911Y4910D01*
X7951Y4851D01*
X8011Y4811D01*
X8031Y4807D01*
Y4930D01*
D02*
G37*
G36*
X5363Y5055D02*
X5343Y5051D01*
X5284Y5012D01*
X5244Y4952D01*
X5240Y4932D01*
X5363D01*
Y5055D01*
D02*
G37*
G36*
X8131Y5154D02*
Y5030D01*
X8254D01*
X8250Y5051D01*
X8210Y5110D01*
X8151Y5150D01*
X8131Y5154D01*
D02*
G37*
G36*
X15521Y5223D02*
X15501Y5219D01*
X15441Y5179D01*
X15401Y5119D01*
X15397Y5099D01*
X15521D01*
Y5223D01*
D02*
G37*
G36*
X5463Y5055D02*
Y4932D01*
X5587D01*
X5583Y4952D01*
X5543Y5012D01*
X5484Y5051D01*
X5463Y5055D01*
D02*
G37*
G36*
X8031Y5154D02*
X8011Y5150D01*
X7951Y5110D01*
X7911Y5051D01*
X7907Y5030D01*
X8031D01*
Y5154D01*
D02*
G37*
G36*
X8011Y5796D02*
X7888D01*
X7892Y5776D01*
X7931Y5717D01*
X7991Y5677D01*
X8011Y5673D01*
Y5796D01*
D02*
G37*
G36*
X6516Y7965D02*
X6462Y7955D01*
X6416Y7924D01*
X6386Y7879D01*
X6375Y7825D01*
X6386Y7771D01*
X6396Y7756D01*
Y6358D01*
X6366Y6314D01*
X6356Y6260D01*
X6366Y6206D01*
X6397Y6161D01*
X6442Y6130D01*
X6496Y6119D01*
X6550Y6130D01*
X6595Y6161D01*
X6626Y6206D01*
X6637Y6260D01*
X6626Y6314D01*
X6596Y6358D01*
Y7713D01*
X6615Y7725D01*
X6646Y7771D01*
X6656Y7825D01*
X6646Y7879D01*
X6615Y7924D01*
X6570Y7955D01*
X6516Y7965D01*
D02*
G37*
G36*
X15541Y6276D02*
X15520Y6272D01*
X15461Y6232D01*
X15421Y6173D01*
X15417Y6152D01*
X15541D01*
Y6276D01*
D02*
G37*
G36*
X8828Y6059D02*
X8808Y6055D01*
X8748Y6016D01*
X8708Y5956D01*
X8704Y5936D01*
X8828D01*
Y6059D01*
D02*
G37*
G36*
X8928D02*
Y5936D01*
X9051D01*
X9047Y5956D01*
X9008Y6016D01*
X8948Y6055D01*
X8928Y6059D01*
D02*
G37*
G36*
X15641Y6276D02*
Y6152D01*
X15764D01*
X15760Y6173D01*
X15720Y6232D01*
X15661Y6272D01*
X15641Y6276D01*
D02*
G37*
G36*
X10521Y6466D02*
X10397D01*
X10401Y6446D01*
X10441Y6386D01*
X10501Y6346D01*
X10521Y6342D01*
Y6466D01*
D02*
G37*
G36*
X650Y6912D02*
X578Y6902D01*
X511Y6875D01*
X453Y6830D01*
X409Y6773D01*
X381Y6706D01*
X372Y6634D01*
X381Y6562D01*
X409Y6495D01*
X453Y6437D01*
X511Y6393D01*
X578Y6365D01*
X650Y6356D01*
X722Y6365D01*
X789Y6393D01*
X846Y6437D01*
X890Y6495D01*
X918Y6562D01*
X928Y6634D01*
X918Y6706D01*
X890Y6773D01*
X846Y6830D01*
X789Y6875D01*
X722Y6902D01*
X650Y6912D01*
D02*
G37*
G36*
X14596Y6613D02*
X14155D01*
X14162Y6560D01*
X14202Y6464D01*
X14265Y6381D01*
X14348Y6318D01*
X14444Y6278D01*
X14547Y6265D01*
X14596D01*
Y6613D01*
D02*
G37*
G36*
X15136D02*
X14696D01*
Y6265D01*
X14744D01*
X14847Y6278D01*
X14943Y6318D01*
X15026Y6381D01*
X15089Y6464D01*
X15129Y6560D01*
X15136Y6613D01*
D02*
G37*
G36*
X9051Y5836D02*
X8928D01*
Y5712D01*
X8948Y5716D01*
X9008Y5756D01*
X9047Y5816D01*
X9051Y5836D01*
D02*
G37*
G36*
X3582Y5892D02*
X3562Y5888D01*
X3502Y5848D01*
X3462Y5789D01*
X3458Y5768D01*
X3582D01*
Y5892D01*
D02*
G37*
G36*
X8235Y5796D02*
X8111D01*
Y5673D01*
X8131Y5677D01*
X8191Y5717D01*
X8231Y5776D01*
X8235Y5796D01*
D02*
G37*
G36*
X8828Y5836D02*
X8704D01*
X8708Y5816D01*
X8748Y5756D01*
X8808Y5716D01*
X8828Y5712D01*
Y5836D01*
D02*
G37*
G36*
X3682Y5892D02*
Y5768D01*
X3805D01*
X3801Y5789D01*
X3762Y5848D01*
X3702Y5888D01*
X3682Y5892D01*
D02*
G37*
G36*
X15541Y6052D02*
X15417D01*
X15421Y6032D01*
X15461Y5973D01*
X15520Y5933D01*
X15541Y5929D01*
Y6052D01*
D02*
G37*
G36*
X15764D02*
X15641D01*
Y5929D01*
X15661Y5933D01*
X15720Y5973D01*
X15760Y6032D01*
X15764Y6052D01*
D02*
G37*
G36*
X8011Y6020D02*
X7991Y6016D01*
X7931Y5976D01*
X7892Y5917D01*
X7888Y5896D01*
X8011D01*
Y6020D01*
D02*
G37*
G36*
X8111D02*
Y5896D01*
X8235D01*
X8231Y5917D01*
X8191Y5976D01*
X8131Y6016D01*
X8111Y6020D01*
D02*
G37*
G36*
X13109Y3100D02*
X12986D01*
X12990Y3079D01*
X13030Y3020D01*
X13089Y2980D01*
X13109Y2976D01*
Y3100D01*
D02*
G37*
G36*
X13333D02*
X13209D01*
Y2976D01*
X13230Y2980D01*
X13289Y3020D01*
X13329Y3079D01*
X13333Y3100D01*
D02*
G37*
G36*
X491Y3038D02*
X471Y3034D01*
X412Y2994D01*
X372Y2934D01*
X368Y2914D01*
X491D01*
Y3038D01*
D02*
G37*
G36*
X591D02*
Y2914D01*
X715D01*
X711Y2934D01*
X671Y2994D01*
X612Y3034D01*
X591Y3038D01*
D02*
G37*
G36*
X6003Y3119D02*
X5880D01*
X5884Y3099D01*
X5923Y3040D01*
X5983Y3000D01*
X6003Y2996D01*
Y3119D01*
D02*
G37*
G36*
X13209Y3323D02*
Y3200D01*
X13333D01*
X13329Y3220D01*
X13289Y3279D01*
X13230Y3319D01*
X13209Y3323D01*
D02*
G37*
G36*
X6003Y3343D02*
X5983Y3339D01*
X5923Y3299D01*
X5884Y3239D01*
X5880Y3219D01*
X6003D01*
Y3343D01*
D02*
G37*
G36*
X6227Y3119D02*
X6103D01*
Y2996D01*
X6123Y3000D01*
X6183Y3040D01*
X6223Y3099D01*
X6227Y3119D01*
D02*
G37*
G36*
X13109Y3323D02*
X13089Y3319D01*
X13030Y3279D01*
X12990Y3220D01*
X12986Y3200D01*
X13109D01*
Y3323D01*
D02*
G37*
G36*
X1906Y2667D02*
X1782D01*
Y2543D01*
X1802Y2547D01*
X1862Y2587D01*
X1902Y2646D01*
X1906Y2667D01*
D02*
G37*
G36*
X491Y2814D02*
X368D01*
X372Y2794D01*
X412Y2734D01*
X471Y2695D01*
X491Y2691D01*
Y2814D01*
D02*
G37*
G36*
X15695Y2637D02*
X15572D01*
Y2514D01*
X15592Y2518D01*
X15651Y2557D01*
X15691Y2617D01*
X15695Y2637D01*
D02*
G37*
G36*
X1682Y2667D02*
X1559D01*
X1563Y2646D01*
X1603Y2587D01*
X1662Y2547D01*
X1682Y2543D01*
Y2667D01*
D02*
G37*
G36*
X715Y2814D02*
X591D01*
Y2691D01*
X612Y2695D01*
X671Y2734D01*
X711Y2794D01*
X715Y2814D01*
D02*
G37*
G36*
X1682Y2890D02*
X1662Y2886D01*
X1603Y2846D01*
X1563Y2787D01*
X1559Y2767D01*
X1682D01*
Y2890D01*
D02*
G37*
G36*
X1782D02*
Y2767D01*
X1906D01*
X1902Y2787D01*
X1862Y2846D01*
X1802Y2886D01*
X1782Y2890D01*
D02*
G37*
G36*
X15472Y2861D02*
X15451Y2856D01*
X15392Y2817D01*
X15352Y2757D01*
X15348Y2737D01*
X15472D01*
Y2861D01*
D02*
G37*
G36*
X15572D02*
Y2737D01*
X15695D01*
X15691Y2757D01*
X15651Y2817D01*
X15592Y2856D01*
X15572Y2861D01*
D02*
G37*
G36*
X6103Y3343D02*
Y3219D01*
X6227D01*
X6223Y3239D01*
X6183Y3299D01*
X6123Y3339D01*
X6103Y3343D01*
D02*
G37*
G36*
X650Y4943D02*
X578Y4934D01*
X511Y4906D01*
X453Y4862D01*
X409Y4804D01*
X381Y4737D01*
X372Y4665D01*
X381Y4593D01*
X409Y4526D01*
X453Y4469D01*
X511Y4425D01*
X578Y4397D01*
X650Y4387D01*
X722Y4397D01*
X789Y4425D01*
X846Y4469D01*
X890Y4526D01*
X918Y4593D01*
X928Y4665D01*
X918Y4737D01*
X890Y4804D01*
X846Y4862D01*
X789Y4906D01*
X722Y4934D01*
X650Y4943D01*
D02*
G37*
G36*
X14537Y4612D02*
X14516Y4608D01*
X14457Y4569D01*
X14417Y4509D01*
X14413Y4489D01*
X14537D01*
Y4612D01*
D02*
G37*
G36*
Y4389D02*
X14413D01*
X14417Y4369D01*
X14457Y4309D01*
X14516Y4269D01*
X14537Y4265D01*
Y4389D01*
D02*
G37*
G36*
X14760D02*
X14637D01*
Y4265D01*
X14657Y4269D01*
X14716Y4309D01*
X14756Y4369D01*
X14760Y4389D01*
D02*
G37*
G36*
X14637Y4612D02*
Y4489D01*
X14760D01*
X14756Y4509D01*
X14716Y4569D01*
X14657Y4608D01*
X14637Y4612D01*
D02*
G37*
G36*
X5363Y4832D02*
X5240D01*
X5244Y4812D01*
X5284Y4752D01*
X5343Y4712D01*
X5363Y4708D01*
Y4832D01*
D02*
G37*
G36*
X5587D02*
X5463D01*
Y4708D01*
X5484Y4712D01*
X5543Y4752D01*
X5583Y4812D01*
X5587Y4832D01*
D02*
G37*
G36*
X12056Y4799D02*
X12036Y4795D01*
X11977Y4756D01*
X11937Y4696D01*
X11933Y4676D01*
X12056D01*
Y4799D01*
D02*
G37*
G36*
X12156D02*
Y4676D01*
X12280D01*
X12276Y4696D01*
X12236Y4756D01*
X12177Y4795D01*
X12156Y4799D01*
D02*
G37*
G36*
X10403Y3835D02*
X10383Y3831D01*
X10323Y3791D01*
X10283Y3732D01*
X10279Y3711D01*
X10403D01*
Y3835D01*
D02*
G37*
G36*
X10503D02*
Y3711D01*
X10626D01*
X10622Y3732D01*
X10582Y3791D01*
X10523Y3831D01*
X10503Y3835D01*
D02*
G37*
G36*
X10403Y3611D02*
X10279D01*
X10283Y3591D01*
X10323Y3532D01*
X10383Y3492D01*
X10403Y3488D01*
Y3611D01*
D02*
G37*
G36*
X10626D02*
X10503D01*
Y3488D01*
X10523Y3492D01*
X10582Y3532D01*
X10622Y3591D01*
X10626Y3611D01*
D02*
G37*
G36*
X6447Y5898D02*
X6393Y5888D01*
X6348Y5857D01*
X6317Y5812D01*
X6306Y5758D01*
X6317Y5704D01*
X6330Y5684D01*
Y3743D01*
X6280Y3723D01*
X6213Y3790D01*
Y4913D01*
X6222Y4927D01*
X6233Y4980D01*
X6222Y5034D01*
X6192Y5080D01*
X6146Y5110D01*
X6093Y5121D01*
X6039Y5110D01*
X5993Y5080D01*
X5963Y5034D01*
X5952Y4980D01*
X5963Y4927D01*
X5972Y4913D01*
Y3740D01*
X5972Y3740D01*
X5981Y3694D01*
X6007Y3655D01*
X6923Y2740D01*
X6962Y2714D01*
X7008Y2704D01*
X10857D01*
X10871Y2695D01*
X10925Y2684D01*
X10979Y2695D01*
X11025Y2725D01*
X11055Y2771D01*
X11066Y2825D01*
X11055Y2879D01*
X11025Y2924D01*
X10979Y2955D01*
X10925Y2965D01*
X10871Y2955D01*
X10857Y2945D01*
X7058D01*
X6990Y3013D01*
X7011Y3063D01*
X10758D01*
X10803Y3071D01*
X10840Y3097D01*
X11584Y3840D01*
X11742D01*
Y3406D01*
X12530D01*
Y4508D01*
X12302D01*
X12275Y4549D01*
X12276Y4558D01*
X12280Y4576D01*
X11933D01*
X11936Y4558D01*
X11937Y4549D01*
X11911Y4508D01*
X11742D01*
Y4073D01*
X11535D01*
X11491Y4064D01*
X11453Y4039D01*
X10710Y3296D01*
X7007D01*
X6563Y3739D01*
Y5684D01*
X6577Y5704D01*
X6587Y5758D01*
X6577Y5812D01*
X6546Y5857D01*
X6501Y5888D01*
X6447Y5898D01*
D02*
G37*
G36*
X15501Y4160D02*
X15481Y4156D01*
X15421Y4116D01*
X15382Y4056D01*
X15378Y4036D01*
X15501D01*
Y4160D01*
D02*
G37*
G36*
X15601D02*
Y4036D01*
X15725D01*
X15721Y4056D01*
X15681Y4116D01*
X15621Y4156D01*
X15601Y4160D01*
D02*
G37*
G36*
X15501Y3936D02*
X15378D01*
X15382Y3916D01*
X15421Y3857D01*
X15481Y3817D01*
X15501Y3813D01*
Y3936D01*
D02*
G37*
G36*
X15725D02*
X15601D01*
Y3813D01*
X15621Y3817D01*
X15681Y3857D01*
X15721Y3916D01*
X15725Y3936D01*
D02*
G37*
G36*
X10915Y11492D02*
X10894Y11488D01*
X10835Y11449D01*
X10795Y11389D01*
X10791Y11369D01*
X10915D01*
Y11492D01*
D02*
G37*
G36*
X11015D02*
Y11369D01*
X11138D01*
X11134Y11389D01*
X11094Y11449D01*
X11035Y11488D01*
X11015Y11492D01*
D02*
G37*
G36*
X12683Y11318D02*
X12560D01*
Y11195D01*
X12580Y11199D01*
X12640Y11238D01*
X12679Y11298D01*
X12683Y11318D01*
D02*
G37*
G36*
X15541Y11325D02*
X15520Y11321D01*
X15461Y11281D01*
X15421Y11222D01*
X15417Y11202D01*
X15541D01*
Y11325D01*
D02*
G37*
G36*
X14445Y11210D02*
X14322D01*
Y11086D01*
X14342Y11090D01*
X14401Y11130D01*
X14441Y11190D01*
X14445Y11210D01*
D02*
G37*
G36*
X12460Y11318D02*
X12336D01*
X12340Y11298D01*
X12380Y11238D01*
X12440Y11199D01*
X12460Y11195D01*
Y11318D01*
D02*
G37*
G36*
X15641Y11325D02*
Y11202D01*
X15764D01*
X15760Y11222D01*
X15720Y11281D01*
X15661Y11321D01*
X15641Y11325D01*
D02*
G37*
G36*
X14222Y11433D02*
X14201Y11429D01*
X14142Y11390D01*
X14102Y11330D01*
X14098Y11310D01*
X14222D01*
Y11433D01*
D02*
G37*
G36*
X14322D02*
Y11310D01*
X14445D01*
X14441Y11330D01*
X14401Y11390D01*
X14342Y11429D01*
X14322Y11433D01*
D02*
G37*
G36*
X597Y18720D02*
X473D01*
Y18596D01*
X493Y18600D01*
X553Y18640D01*
X593Y18699D01*
X597Y18720D01*
D02*
G37*
G36*
X3375Y18727D02*
X3355Y18723D01*
X3295Y18683D01*
X3256Y18623D01*
X3252Y18603D01*
X3375D01*
Y18727D01*
D02*
G37*
G36*
X10183Y18710D02*
X10060D01*
Y18586D01*
X10080Y18590D01*
X10140Y18630D01*
X10179Y18690D01*
X10183Y18710D01*
D02*
G37*
G36*
X373Y18720D02*
X250D01*
X254Y18699D01*
X294Y18640D01*
X353Y18600D01*
X373Y18596D01*
Y18720D01*
D02*
G37*
G36*
X3475Y18727D02*
Y18603D01*
X3599D01*
X3595Y18623D01*
X3555Y18683D01*
X3495Y18723D01*
X3475Y18727D01*
D02*
G37*
G36*
X1348Y18759D02*
X1224D01*
X1228Y18739D01*
X1268Y18679D01*
X1327Y18640D01*
X1348Y18636D01*
Y18759D01*
D02*
G37*
G36*
X1571D02*
X1448D01*
Y18636D01*
X1468Y18640D01*
X1527Y18679D01*
X1567Y18739D01*
X1571Y18759D01*
D02*
G37*
G36*
X5905Y18736D02*
X5885Y18732D01*
X5825Y18693D01*
X5785Y18633D01*
X5781Y18613D01*
X5905D01*
Y18736D01*
D02*
G37*
G36*
X6005D02*
Y18613D01*
X6128D01*
X6124Y18633D01*
X6084Y18693D01*
X6025Y18732D01*
X6005Y18736D01*
D02*
G37*
G36*
X12165Y18562D02*
X12041D01*
X12045Y18542D01*
X12085Y18482D01*
X12144Y18443D01*
X12165Y18439D01*
Y18562D01*
D02*
G37*
G36*
X12388D02*
X12265D01*
Y18439D01*
X12285Y18443D01*
X12344Y18482D01*
X12384Y18542D01*
X12388Y18562D01*
D02*
G37*
G36*
X2381Y18549D02*
X2361Y18545D01*
X2301Y18506D01*
X2262Y18446D01*
X2258Y18426D01*
X2381D01*
Y18549D01*
D02*
G37*
G36*
X2481D02*
Y18426D01*
X2605D01*
X2601Y18446D01*
X2561Y18506D01*
X2501Y18545D01*
X2481Y18549D01*
D02*
G37*
G36*
X6919Y18680D02*
X6795D01*
X6799Y18660D01*
X6839Y18601D01*
X6898Y18561D01*
X6919Y18557D01*
Y18680D01*
D02*
G37*
G36*
X11162Y18687D02*
Y18564D01*
X11286D01*
X11282Y18584D01*
X11242Y18643D01*
X11182Y18683D01*
X11162Y18687D01*
D02*
G37*
G36*
X9960Y18710D02*
X9836D01*
X9840Y18690D01*
X9880Y18630D01*
X9940Y18590D01*
X9960Y18586D01*
Y18710D01*
D02*
G37*
G36*
X7142Y18680D02*
X7018D01*
Y18557D01*
X7039Y18561D01*
X7098Y18601D01*
X7138Y18660D01*
X7142Y18680D01*
D02*
G37*
G36*
X11062Y18687D02*
X11042Y18683D01*
X10982Y18643D01*
X10943Y18584D01*
X10939Y18564D01*
X11062D01*
Y18687D01*
D02*
G37*
G36*
X473Y18943D02*
Y18820D01*
X597D01*
X593Y18840D01*
X553Y18899D01*
X493Y18939D01*
X473Y18943D01*
D02*
G37*
G36*
X1348Y18983D02*
X1327Y18979D01*
X1268Y18939D01*
X1228Y18879D01*
X1224Y18859D01*
X1348D01*
Y18983D01*
D02*
G37*
G36*
X15843Y18936D02*
X15719D01*
Y18813D01*
X15739Y18817D01*
X15799Y18857D01*
X15839Y18916D01*
X15843Y18936D01*
D02*
G37*
G36*
X373Y18943D02*
X353Y18939D01*
X294Y18899D01*
X254Y18840D01*
X250Y18820D01*
X373D01*
Y18943D01*
D02*
G37*
G36*
X1448Y18983D02*
Y18859D01*
X1571D01*
X1567Y18879D01*
X1527Y18939D01*
X1468Y18979D01*
X1448Y18983D01*
D02*
G37*
G36*
X2726Y19133D02*
X2602D01*
X2606Y19113D01*
X2646Y19053D01*
X2705Y19014D01*
X2726Y19010D01*
Y19133D01*
D02*
G37*
G36*
X2949D02*
X2826D01*
Y19010D01*
X2846Y19014D01*
X2905Y19053D01*
X2945Y19113D01*
X2949Y19133D01*
D02*
G37*
G36*
X11121Y19123D02*
X10998D01*
X11002Y19103D01*
X11042Y19044D01*
X11101Y19004D01*
X11121Y19000D01*
Y19123D01*
D02*
G37*
G36*
X11345D02*
X11221D01*
Y19000D01*
X11241Y19004D01*
X11301Y19044D01*
X11341Y19103D01*
X11345Y19123D01*
D02*
G37*
G36*
X12165Y18786D02*
X12144Y18782D01*
X12085Y18742D01*
X12045Y18682D01*
X12041Y18662D01*
X12165D01*
Y18786D01*
D02*
G37*
G36*
X12265D02*
Y18662D01*
X12388D01*
X12384Y18682D01*
X12344Y18742D01*
X12285Y18782D01*
X12265Y18786D01*
D02*
G37*
G36*
X8474Y18766D02*
X8453Y18762D01*
X8394Y18722D01*
X8354Y18663D01*
X8350Y18643D01*
X8474D01*
Y18766D01*
D02*
G37*
G36*
X8574D02*
Y18643D01*
X8697D01*
X8693Y18663D01*
X8653Y18722D01*
X8594Y18762D01*
X8574Y18766D01*
D02*
G37*
G36*
X6919Y18904D02*
X6898Y18900D01*
X6839Y18860D01*
X6799Y18801D01*
X6795Y18780D01*
X6919D01*
Y18904D01*
D02*
G37*
G36*
X10060Y18933D02*
Y18810D01*
X10183D01*
X10179Y18830D01*
X10140Y18890D01*
X10080Y18929D01*
X10060Y18933D01*
D02*
G37*
G36*
X15619Y18936D02*
X15496D01*
X15500Y18916D01*
X15540Y18857D01*
X15599Y18817D01*
X15619Y18813D01*
Y18936D01*
D02*
G37*
G36*
X7018Y18904D02*
Y18780D01*
X7142D01*
X7138Y18801D01*
X7098Y18860D01*
X7039Y18900D01*
X7018Y18904D01*
D02*
G37*
G36*
X9960Y18933D02*
X9940Y18929D01*
X9880Y18890D01*
X9840Y18830D01*
X9836Y18810D01*
X9960D01*
Y18933D01*
D02*
G37*
G36*
X8697Y18543D02*
X8574D01*
Y18419D01*
X8594Y18423D01*
X8653Y18463D01*
X8693Y18522D01*
X8697Y18543D01*
D02*
G37*
G36*
X14231Y17834D02*
X14108D01*
X14112Y17814D01*
X14152Y17754D01*
X14211Y17714D01*
X14231Y17710D01*
Y17834D01*
D02*
G37*
G36*
X14455D02*
X14332D01*
Y17710D01*
X14352Y17714D01*
X14411Y17754D01*
X14451Y17814D01*
X14455Y17834D01*
D02*
G37*
G36*
X403Y17696D02*
X279D01*
X283Y17676D01*
X323Y17616D01*
X383Y17577D01*
X403Y17573D01*
Y17696D01*
D02*
G37*
G36*
X626D02*
X503D01*
Y17573D01*
X523Y17577D01*
X582Y17616D01*
X622Y17676D01*
X626Y17696D01*
D02*
G37*
G36*
X15580Y17834D02*
X15456D01*
X15460Y17814D01*
X15500Y17754D01*
X15560Y17714D01*
X15580Y17710D01*
Y17834D01*
D02*
G37*
G36*
X1448Y17900D02*
Y17776D01*
X1571D01*
X1567Y17797D01*
X1527Y17856D01*
X1468Y17896D01*
X1448Y17900D01*
D02*
G37*
G36*
X403Y17920D02*
X383Y17916D01*
X323Y17876D01*
X283Y17816D01*
X279Y17796D01*
X403D01*
Y17920D01*
D02*
G37*
G36*
X15803Y17834D02*
X15680D01*
Y17710D01*
X15700Y17714D01*
X15760Y17754D01*
X15799Y17814D01*
X15803Y17834D01*
D02*
G37*
G36*
X1348Y17900D02*
X1327Y17896D01*
X1268Y17856D01*
X1228Y17797D01*
X1224Y17776D01*
X1348D01*
Y17900D01*
D02*
G37*
G36*
X1448Y16916D02*
Y16792D01*
X1571D01*
X1567Y16812D01*
X1527Y16872D01*
X1468Y16912D01*
X1448Y16916D01*
D02*
G37*
G36*
X2361Y17273D02*
X2238D01*
X2242Y17253D01*
X2282Y17193D01*
X2341Y17153D01*
X2361Y17149D01*
Y17273D01*
D02*
G37*
G36*
X532Y16886D02*
Y16763D01*
X656D01*
X652Y16783D01*
X612Y16842D01*
X552Y16882D01*
X532Y16886D01*
D02*
G37*
G36*
X1348Y16916D02*
X1327Y16912D01*
X1268Y16872D01*
X1228Y16812D01*
X1224Y16792D01*
X1348D01*
Y16916D01*
D02*
G37*
G36*
X2585Y17273D02*
X2461D01*
Y17149D01*
X2482Y17153D01*
X2541Y17193D01*
X2581Y17253D01*
X2585Y17273D01*
D02*
G37*
G36*
X1348Y17676D02*
X1224D01*
X1228Y17656D01*
X1268Y17597D01*
X1327Y17557D01*
X1348Y17553D01*
Y17676D01*
D02*
G37*
G36*
X1571D02*
X1448D01*
Y17553D01*
X1468Y17557D01*
X1527Y17597D01*
X1567Y17656D01*
X1571Y17676D01*
D02*
G37*
G36*
X2361Y17496D02*
X2341Y17492D01*
X2282Y17453D01*
X2242Y17393D01*
X2238Y17373D01*
X2361D01*
Y17496D01*
D02*
G37*
G36*
X2461D02*
Y17373D01*
X2585D01*
X2581Y17393D01*
X2541Y17453D01*
X2482Y17492D01*
X2461Y17496D01*
D02*
G37*
G36*
X11062Y18464D02*
X10939D01*
X10943Y18444D01*
X10982Y18384D01*
X11042Y18344D01*
X11062Y18340D01*
Y18464D01*
D02*
G37*
G36*
X11286D02*
X11162D01*
Y18340D01*
X11182Y18344D01*
X11242Y18384D01*
X11282Y18444D01*
X11286Y18464D01*
D02*
G37*
G36*
X4478Y18402D02*
X4457Y18398D01*
X4398Y18358D01*
X4358Y18299D01*
X4354Y18278D01*
X4478D01*
Y18402D01*
D02*
G37*
G36*
X4578D02*
Y18278D01*
X4701D01*
X4697Y18299D01*
X4657Y18358D01*
X4598Y18398D01*
X4578Y18402D01*
D02*
G37*
G36*
X3375Y18503D02*
X3252D01*
X3256Y18483D01*
X3295Y18423D01*
X3355Y18384D01*
X3375Y18380D01*
Y18503D01*
D02*
G37*
G36*
X6128Y18513D02*
X6005D01*
Y18389D01*
X6025Y18394D01*
X6084Y18433D01*
X6124Y18493D01*
X6128Y18513D01*
D02*
G37*
G36*
X8474Y18543D02*
X8350D01*
X8354Y18522D01*
X8394Y18463D01*
X8453Y18423D01*
X8474Y18419D01*
Y18543D01*
D02*
G37*
G36*
X3599Y18503D02*
X3475D01*
Y18380D01*
X3495Y18384D01*
X3555Y18423D01*
X3595Y18483D01*
X3599Y18503D01*
D02*
G37*
G36*
X5905Y18513D02*
X5781D01*
X5785Y18493D01*
X5825Y18433D01*
X5885Y18394D01*
X5905Y18389D01*
Y18513D01*
D02*
G37*
G36*
X14332Y18057D02*
Y17934D01*
X14455D01*
X14451Y17954D01*
X14411Y18014D01*
X14352Y18053D01*
X14332Y18057D01*
D02*
G37*
G36*
X15580D02*
X15560Y18053D01*
X15500Y18014D01*
X15460Y17954D01*
X15456Y17934D01*
X15580D01*
Y18057D01*
D02*
G37*
G36*
X503Y17920D02*
Y17796D01*
X626D01*
X622Y17816D01*
X582Y17876D01*
X523Y17916D01*
X503Y17920D01*
D02*
G37*
G36*
X14231Y18057D02*
X14211Y18053D01*
X14152Y18014D01*
X14112Y17954D01*
X14108Y17934D01*
X14231D01*
Y18057D01*
D02*
G37*
G36*
X15680D02*
Y17934D01*
X15803D01*
X15799Y17954D01*
X15760Y18014D01*
X15700Y18053D01*
X15680Y18057D01*
D02*
G37*
G36*
X2381Y18326D02*
X2258D01*
X2262Y18306D01*
X2301Y18246D01*
X2361Y18206D01*
X2381Y18202D01*
Y18326D01*
D02*
G37*
G36*
X2605D02*
X2481D01*
Y18202D01*
X2501Y18206D01*
X2561Y18246D01*
X2601Y18306D01*
X2605Y18326D01*
D02*
G37*
G36*
X4478Y18178D02*
X4354D01*
X4358Y18158D01*
X4398Y18099D01*
X4457Y18059D01*
X4478Y18055D01*
Y18178D01*
D02*
G37*
G36*
X4701D02*
X4578D01*
Y18055D01*
X4598Y18059D01*
X4657Y18099D01*
X4697Y18158D01*
X4701Y18178D01*
D02*
G37*
G36*
X15619Y19160D02*
X15599Y19156D01*
X15540Y19116D01*
X15500Y19056D01*
X15496Y19036D01*
X15619D01*
Y19160D01*
D02*
G37*
G36*
X14218Y20694D02*
X14116Y20681D01*
X14020Y20641D01*
X13938Y20578D01*
X13875Y20496D01*
X13835Y20400D01*
X13821Y20297D01*
X13835Y20194D01*
X13875Y20099D01*
X13938Y20016D01*
X14020Y19953D01*
X14116Y19914D01*
X14218Y19900D01*
X14321Y19914D01*
X14417Y19953D01*
X14499Y20016D01*
X14562Y20099D01*
X14602Y20194D01*
X14616Y20297D01*
X14602Y20400D01*
X14562Y20496D01*
X14499Y20578D01*
X14417Y20641D01*
X14321Y20681D01*
X14218Y20694D01*
D02*
G37*
G36*
X9806Y20247D02*
X9524D01*
X9529Y20209D01*
X9563Y20128D01*
X9617Y20057D01*
X9687Y20004D01*
X9769Y19970D01*
X9806Y19965D01*
Y20247D01*
D02*
G37*
G36*
X12037Y20694D02*
X11935Y20681D01*
X11839Y20641D01*
X11757Y20578D01*
X11694Y20496D01*
X11654Y20400D01*
X11640Y20297D01*
X11654Y20194D01*
X11694Y20099D01*
X11757Y20016D01*
X11839Y19953D01*
X11935Y19914D01*
X12037Y19900D01*
X12140Y19914D01*
X12236Y19953D01*
X12318Y20016D01*
X12381Y20099D01*
X12421Y20194D01*
X12435Y20297D01*
X12421Y20400D01*
X12381Y20496D01*
X12318Y20578D01*
X12236Y20641D01*
X12140Y20681D01*
X12037Y20694D01*
D02*
G37*
G36*
X13128D02*
X13025Y20681D01*
X12929Y20641D01*
X12847Y20578D01*
X12784Y20496D01*
X12744Y20400D01*
X12731Y20297D01*
X12744Y20194D01*
X12784Y20099D01*
X12847Y20016D01*
X12929Y19953D01*
X13025Y19914D01*
X13128Y19900D01*
X13231Y19914D01*
X13326Y19953D01*
X13409Y20016D01*
X13472Y20099D01*
X13512Y20194D01*
X13525Y20297D01*
X13512Y20400D01*
X13472Y20496D01*
X13409Y20578D01*
X13326Y20641D01*
X13231Y20681D01*
X13128Y20694D01*
D02*
G37*
G36*
X10189Y20247D02*
X9906D01*
Y19965D01*
X9944Y19970D01*
X10026Y20004D01*
X10096Y20057D01*
X10150Y20128D01*
X10184Y20209D01*
X10189Y20247D01*
D02*
G37*
G36*
X88Y20816D02*
X-36D01*
X-32Y20796D01*
X8Y20736D01*
X68Y20697D01*
X88Y20693D01*
Y20816D01*
D02*
G37*
G36*
X311D02*
X188D01*
Y20693D01*
X208Y20697D01*
X268Y20736D01*
X307Y20796D01*
X311Y20816D01*
D02*
G37*
G36*
X9806Y20630D02*
X9769Y20625D01*
X9687Y20591D01*
X9617Y20537D01*
X9563Y20467D01*
X9529Y20385D01*
X9524Y20347D01*
X9806D01*
Y20630D01*
D02*
G37*
G36*
X9906D02*
Y20347D01*
X10189D01*
X10184Y20385D01*
X10150Y20467D01*
X10096Y20537D01*
X10026Y20591D01*
X9944Y20625D01*
X9906Y20630D01*
D02*
G37*
G36*
X3313Y20694D02*
X3210Y20681D01*
X3114Y20641D01*
X3032Y20578D01*
X2969Y20496D01*
X2929Y20400D01*
X2916Y20297D01*
X2929Y20194D01*
X2969Y20099D01*
X3032Y20016D01*
X3114Y19953D01*
X3210Y19914D01*
X3313Y19900D01*
X3416Y19914D01*
X3512Y19953D01*
X3594Y20016D01*
X3657Y20099D01*
X3697Y20194D01*
X3710Y20297D01*
X3697Y20400D01*
X3657Y20496D01*
X3594Y20578D01*
X3512Y20641D01*
X3416Y20681D01*
X3313Y20694D01*
D02*
G37*
G36*
X4404D02*
X4301Y20681D01*
X4205Y20641D01*
X4123Y20578D01*
X4060Y20496D01*
X4020Y20400D01*
X4006Y20297D01*
X4020Y20194D01*
X4060Y20099D01*
X4123Y20016D01*
X4205Y19953D01*
X4301Y19914D01*
X4404Y19900D01*
X4506Y19914D01*
X4602Y19953D01*
X4684Y20016D01*
X4747Y20099D01*
X4787Y20194D01*
X4801Y20297D01*
X4787Y20400D01*
X4747Y20496D01*
X4684Y20578D01*
X4602Y20641D01*
X4506Y20681D01*
X4404Y20694D01*
D02*
G37*
G36*
X1132D02*
X1029Y20681D01*
X933Y20641D01*
X851Y20578D01*
X788Y20496D01*
X748Y20400D01*
X735Y20297D01*
X748Y20194D01*
X788Y20099D01*
X851Y20016D01*
X933Y19953D01*
X1029Y19914D01*
X1132Y19900D01*
X1235Y19914D01*
X1330Y19953D01*
X1413Y20016D01*
X1476Y20099D01*
X1515Y20194D01*
X1529Y20297D01*
X1515Y20400D01*
X1476Y20496D01*
X1413Y20578D01*
X1330Y20641D01*
X1235Y20681D01*
X1132Y20694D01*
D02*
G37*
G36*
X2222D02*
X2120Y20681D01*
X2024Y20641D01*
X1942Y20578D01*
X1879Y20496D01*
X1839Y20400D01*
X1825Y20297D01*
X1839Y20194D01*
X1879Y20099D01*
X1942Y20016D01*
X2024Y19953D01*
X2120Y19914D01*
X2222Y19900D01*
X2325Y19914D01*
X2421Y19953D01*
X2503Y20016D01*
X2566Y20099D01*
X2606Y20194D01*
X2620Y20297D01*
X2606Y20400D01*
X2566Y20496D01*
X2503Y20578D01*
X2421Y20641D01*
X2325Y20681D01*
X2222Y20694D01*
D02*
G37*
G36*
X5494D02*
X5391Y20681D01*
X5296Y20641D01*
X5213Y20578D01*
X5150Y20496D01*
X5111Y20400D01*
X5097Y20297D01*
X5111Y20194D01*
X5150Y20099D01*
X5213Y20016D01*
X5296Y19953D01*
X5391Y19914D01*
X5494Y19900D01*
X5597Y19914D01*
X5693Y19953D01*
X5775Y20016D01*
X5838Y20099D01*
X5878Y20194D01*
X5891Y20297D01*
X5878Y20400D01*
X5838Y20496D01*
X5775Y20578D01*
X5693Y20641D01*
X5597Y20681D01*
X5494Y20694D01*
D02*
G37*
G36*
X8766D02*
X8663Y20681D01*
X8567Y20641D01*
X8485Y20578D01*
X8422Y20496D01*
X8382Y20400D01*
X8369Y20297D01*
X8382Y20194D01*
X8422Y20099D01*
X8485Y20016D01*
X8567Y19953D01*
X8663Y19914D01*
X8766Y19900D01*
X8869Y19914D01*
X8964Y19953D01*
X9047Y20016D01*
X9110Y20099D01*
X9149Y20194D01*
X9163Y20297D01*
X9149Y20400D01*
X9110Y20496D01*
X9047Y20578D01*
X8964Y20641D01*
X8869Y20681D01*
X8766Y20694D01*
D02*
G37*
G36*
X10947D02*
X10844Y20681D01*
X10748Y20641D01*
X10666Y20578D01*
X10603Y20496D01*
X10563Y20400D01*
X10550Y20297D01*
X10563Y20194D01*
X10603Y20099D01*
X10666Y20016D01*
X10748Y19953D01*
X10844Y19914D01*
X10947Y19900D01*
X11050Y19914D01*
X11145Y19953D01*
X11228Y20016D01*
X11291Y20099D01*
X11330Y20194D01*
X11344Y20297D01*
X11330Y20400D01*
X11291Y20496D01*
X11228Y20578D01*
X11145Y20641D01*
X11050Y20681D01*
X10947Y20694D01*
D02*
G37*
G36*
X6585D02*
X6482Y20681D01*
X6386Y20641D01*
X6304Y20578D01*
X6241Y20496D01*
X6201Y20400D01*
X6188Y20297D01*
X6201Y20194D01*
X6241Y20099D01*
X6304Y20016D01*
X6386Y19953D01*
X6482Y19914D01*
X6585Y19900D01*
X6687Y19914D01*
X6783Y19953D01*
X6865Y20016D01*
X6929Y20099D01*
X6968Y20194D01*
X6982Y20297D01*
X6968Y20400D01*
X6929Y20496D01*
X6865Y20578D01*
X6783Y20641D01*
X6687Y20681D01*
X6585Y20694D01*
D02*
G37*
G36*
X7675D02*
X7572Y20681D01*
X7477Y20641D01*
X7394Y20578D01*
X7331Y20496D01*
X7292Y20400D01*
X7278Y20297D01*
X7292Y20194D01*
X7331Y20099D01*
X7394Y20016D01*
X7477Y19953D01*
X7572Y19914D01*
X7675Y19900D01*
X7778Y19914D01*
X7874Y19953D01*
X7956Y20016D01*
X8019Y20099D01*
X8059Y20194D01*
X8072Y20297D01*
X8059Y20400D01*
X8019Y20496D01*
X7956Y20578D01*
X7874Y20641D01*
X7778Y20681D01*
X7675Y20694D01*
D02*
G37*
G36*
X7130Y21812D02*
X7027Y21799D01*
X6931Y21759D01*
X6849Y21696D01*
X6786Y21614D01*
X6746Y21518D01*
X6733Y21415D01*
X6746Y21313D01*
X6786Y21217D01*
X6849Y21135D01*
X6931Y21071D01*
X7027Y21032D01*
X7130Y21018D01*
X7233Y21032D01*
X7328Y21071D01*
X7411Y21135D01*
X7474Y21217D01*
X7513Y21313D01*
X7527Y21415D01*
X7513Y21518D01*
X7474Y21614D01*
X7411Y21696D01*
X7328Y21759D01*
X7233Y21799D01*
X7130Y21812D01*
D02*
G37*
G36*
X8220D02*
X8118Y21799D01*
X8022Y21759D01*
X7940Y21696D01*
X7877Y21614D01*
X7837Y21518D01*
X7823Y21415D01*
X7837Y21313D01*
X7877Y21217D01*
X7940Y21135D01*
X8022Y21071D01*
X8118Y21032D01*
X8220Y21018D01*
X8323Y21032D01*
X8419Y21071D01*
X8501Y21135D01*
X8564Y21217D01*
X8604Y21313D01*
X8618Y21415D01*
X8604Y21518D01*
X8564Y21614D01*
X8501Y21696D01*
X8419Y21759D01*
X8323Y21799D01*
X8220Y21812D01*
D02*
G37*
G36*
X4949D02*
X4846Y21799D01*
X4750Y21759D01*
X4668Y21696D01*
X4605Y21614D01*
X4565Y21518D01*
X4552Y21415D01*
X4565Y21313D01*
X4605Y21217D01*
X4668Y21135D01*
X4750Y21071D01*
X4846Y21032D01*
X4949Y21018D01*
X5052Y21032D01*
X5147Y21071D01*
X5230Y21135D01*
X5293Y21217D01*
X5332Y21313D01*
X5346Y21415D01*
X5332Y21518D01*
X5293Y21614D01*
X5230Y21696D01*
X5147Y21759D01*
X5052Y21799D01*
X4949Y21812D01*
D02*
G37*
G36*
X6039D02*
X5937Y21799D01*
X5841Y21759D01*
X5759Y21696D01*
X5695Y21614D01*
X5656Y21518D01*
X5642Y21415D01*
X5656Y21313D01*
X5695Y21217D01*
X5759Y21135D01*
X5841Y21071D01*
X5937Y21032D01*
X6039Y21018D01*
X6142Y21032D01*
X6238Y21071D01*
X6320Y21135D01*
X6383Y21217D01*
X6423Y21313D01*
X6436Y21415D01*
X6423Y21518D01*
X6383Y21614D01*
X6320Y21696D01*
X6238Y21759D01*
X6142Y21799D01*
X6039Y21812D01*
D02*
G37*
G36*
X9311D02*
X9208Y21799D01*
X9112Y21759D01*
X9030Y21696D01*
X8967Y21614D01*
X8927Y21518D01*
X8914Y21415D01*
X8927Y21313D01*
X8967Y21217D01*
X9030Y21135D01*
X9112Y21071D01*
X9208Y21032D01*
X9311Y21018D01*
X9414Y21032D01*
X9510Y21071D01*
X9592Y21135D01*
X9655Y21217D01*
X9695Y21313D01*
X9708Y21415D01*
X9695Y21518D01*
X9655Y21614D01*
X9592Y21696D01*
X9510Y21759D01*
X9414Y21799D01*
X9311Y21812D01*
D02*
G37*
G36*
X12583D02*
X12480Y21799D01*
X12384Y21759D01*
X12302Y21696D01*
X12239Y21614D01*
X12199Y21518D01*
X12186Y21415D01*
X12199Y21313D01*
X12239Y21217D01*
X12302Y21135D01*
X12384Y21071D01*
X12480Y21032D01*
X12583Y21018D01*
X12685Y21032D01*
X12781Y21071D01*
X12863Y21135D01*
X12927Y21217D01*
X12966Y21313D01*
X12980Y21415D01*
X12966Y21518D01*
X12927Y21614D01*
X12863Y21696D01*
X12781Y21759D01*
X12685Y21799D01*
X12583Y21812D01*
D02*
G37*
G36*
X13673D02*
X13570Y21799D01*
X13475Y21759D01*
X13392Y21696D01*
X13329Y21614D01*
X13290Y21518D01*
X13276Y21415D01*
X13290Y21313D01*
X13329Y21217D01*
X13392Y21135D01*
X13475Y21071D01*
X13570Y21032D01*
X13673Y21018D01*
X13776Y21032D01*
X13872Y21071D01*
X13954Y21135D01*
X14017Y21217D01*
X14057Y21313D01*
X14070Y21415D01*
X14057Y21518D01*
X14017Y21614D01*
X13954Y21696D01*
X13872Y21759D01*
X13776Y21799D01*
X13673Y21812D01*
D02*
G37*
G36*
X10402D02*
X10299Y21799D01*
X10203Y21759D01*
X10121Y21696D01*
X10058Y21614D01*
X10018Y21518D01*
X10004Y21415D01*
X10018Y21313D01*
X10058Y21217D01*
X10121Y21135D01*
X10203Y21071D01*
X10299Y21032D01*
X10402Y21018D01*
X10504Y21032D01*
X10600Y21071D01*
X10682Y21135D01*
X10745Y21217D01*
X10785Y21313D01*
X10799Y21415D01*
X10785Y21518D01*
X10745Y21614D01*
X10682Y21696D01*
X10600Y21759D01*
X10504Y21799D01*
X10402Y21812D01*
D02*
G37*
G36*
X11492D02*
X11389Y21799D01*
X11294Y21759D01*
X11211Y21696D01*
X11148Y21614D01*
X11109Y21518D01*
X11095Y21415D01*
X11109Y21313D01*
X11148Y21217D01*
X11211Y21135D01*
X11294Y21071D01*
X11389Y21032D01*
X11492Y21018D01*
X11595Y21032D01*
X11691Y21071D01*
X11773Y21135D01*
X11836Y21217D01*
X11876Y21313D01*
X11889Y21415D01*
X11876Y21518D01*
X11836Y21614D01*
X11773Y21696D01*
X11691Y21759D01*
X11595Y21799D01*
X11492Y21812D01*
D02*
G37*
G36*
X88Y21040D02*
X68Y21036D01*
X8Y20996D01*
X-32Y20936D01*
X-36Y20916D01*
X88D01*
Y21040D01*
D02*
G37*
G36*
X188D02*
Y20916D01*
X311D01*
X307Y20936D01*
X268Y20996D01*
X208Y21036D01*
X188Y21040D01*
D02*
G37*
G36*
X15570Y20846D02*
X15447D01*
X15451Y20825D01*
X15490Y20766D01*
X15550Y20726D01*
X15570Y20722D01*
Y20846D01*
D02*
G37*
G36*
X15794D02*
X15670D01*
Y20722D01*
X15690Y20726D01*
X15750Y20766D01*
X15790Y20825D01*
X15794Y20846D01*
D02*
G37*
G36*
X15570Y21069D02*
X15550Y21065D01*
X15490Y21025D01*
X15451Y20966D01*
X15447Y20946D01*
X15570D01*
Y21069D01*
D02*
G37*
G36*
X2768Y21812D02*
X2665Y21799D01*
X2569Y21759D01*
X2487Y21696D01*
X2424Y21614D01*
X2384Y21518D01*
X2371Y21415D01*
X2384Y21313D01*
X2424Y21217D01*
X2487Y21135D01*
X2569Y21071D01*
X2665Y21032D01*
X2768Y21018D01*
X2870Y21032D01*
X2966Y21071D01*
X3049Y21135D01*
X3112Y21217D01*
X3151Y21313D01*
X3165Y21415D01*
X3151Y21518D01*
X3112Y21614D01*
X3049Y21696D01*
X2966Y21759D01*
X2870Y21799D01*
X2768Y21812D01*
D02*
G37*
G36*
X3858D02*
X3755Y21799D01*
X3660Y21759D01*
X3577Y21696D01*
X3514Y21614D01*
X3475Y21518D01*
X3461Y21415D01*
X3475Y21313D01*
X3514Y21217D01*
X3577Y21135D01*
X3660Y21071D01*
X3755Y21032D01*
X3858Y21018D01*
X3961Y21032D01*
X4057Y21071D01*
X4139Y21135D01*
X4202Y21217D01*
X4242Y21313D01*
X4255Y21415D01*
X4242Y21518D01*
X4202Y21614D01*
X4139Y21696D01*
X4057Y21759D01*
X3961Y21799D01*
X3858Y21812D01*
D02*
G37*
G36*
X15670Y21069D02*
Y20946D01*
X15794D01*
X15790Y20966D01*
X15750Y21025D01*
X15690Y21065D01*
X15670Y21069D01*
D02*
G37*
G36*
X1677Y21812D02*
X1574Y21799D01*
X1479Y21759D01*
X1396Y21696D01*
X1333Y21614D01*
X1294Y21518D01*
X1280Y21415D01*
X1294Y21313D01*
X1333Y21217D01*
X1396Y21135D01*
X1479Y21071D01*
X1574Y21032D01*
X1677Y21018D01*
X1780Y21032D01*
X1876Y21071D01*
X1958Y21135D01*
X2021Y21217D01*
X2061Y21313D01*
X2074Y21415D01*
X2061Y21518D01*
X2021Y21614D01*
X1958Y21696D01*
X1876Y21759D01*
X1780Y21799D01*
X1677Y21812D01*
D02*
G37*
G36*
X14302Y19662D02*
Y19538D01*
X14425D01*
X14421Y19558D01*
X14382Y19618D01*
X14322Y19658D01*
X14302Y19662D01*
D02*
G37*
G36*
X11121Y19347D02*
X11101Y19343D01*
X11042Y19303D01*
X11002Y19243D01*
X10998Y19223D01*
X11121D01*
Y19347D01*
D02*
G37*
G36*
X11221D02*
Y19223D01*
X11345D01*
X11341Y19243D01*
X11301Y19303D01*
X11241Y19343D01*
X11221Y19347D01*
D02*
G37*
G36*
X12145Y19281D02*
X12021D01*
X12025Y19261D01*
X12065Y19201D01*
X12125Y19161D01*
X12145Y19157D01*
Y19281D01*
D02*
G37*
G36*
X12368D02*
X12245D01*
Y19157D01*
X12265Y19161D01*
X12325Y19201D01*
X12364Y19261D01*
X12368Y19281D01*
D02*
G37*
G36*
X2726Y19357D02*
X2705Y19353D01*
X2646Y19313D01*
X2606Y19253D01*
X2602Y19233D01*
X2726D01*
Y19357D01*
D02*
G37*
G36*
X636Y19369D02*
X513D01*
Y19246D01*
X533Y19250D01*
X592Y19290D01*
X632Y19349D01*
X636Y19369D01*
D02*
G37*
G36*
X8956Y19425D02*
X8936Y19421D01*
X8876Y19382D01*
X8836Y19322D01*
X8832Y19302D01*
X8956D01*
Y19425D01*
D02*
G37*
G36*
X2826Y19357D02*
Y19233D01*
X2949D01*
X2945Y19253D01*
X2905Y19313D01*
X2846Y19353D01*
X2826Y19357D01*
D02*
G37*
G36*
X413Y19369D02*
X289D01*
X293Y19349D01*
X333Y19290D01*
X392Y19250D01*
X413Y19246D01*
Y19369D01*
D02*
G37*
G36*
X9179Y19202D02*
X9056D01*
Y19078D01*
X9076Y19082D01*
X9136Y19122D01*
X9175Y19182D01*
X9179Y19202D01*
D02*
G37*
G36*
X3769Y19251D02*
X3645D01*
X3649Y19231D01*
X3689Y19171D01*
X3749Y19132D01*
X3769Y19128D01*
Y19251D01*
D02*
G37*
G36*
X15719Y19160D02*
Y19036D01*
X15843D01*
X15839Y19056D01*
X15799Y19116D01*
X15739Y19156D01*
X15719Y19160D01*
D02*
G37*
G36*
X8956Y19202D02*
X8832D01*
X8836Y19182D01*
X8876Y19122D01*
X8936Y19082D01*
X8956Y19078D01*
Y19202D01*
D02*
G37*
G36*
X3992Y19251D02*
X3869D01*
Y19128D01*
X3889Y19132D01*
X3949Y19171D01*
X3988Y19231D01*
X3992Y19251D01*
D02*
G37*
G36*
X13228Y19271D02*
X13104D01*
X13108Y19251D01*
X13148Y19191D01*
X13207Y19151D01*
X13228Y19147D01*
Y19271D01*
D02*
G37*
G36*
X13451D02*
X13328D01*
Y19147D01*
X13348Y19151D01*
X13407Y19191D01*
X13447Y19251D01*
X13451Y19271D01*
D02*
G37*
G36*
X7765Y19251D02*
X7641D01*
X7645Y19231D01*
X7685Y19171D01*
X7745Y19132D01*
X7765Y19128D01*
Y19251D01*
D02*
G37*
G36*
X7988D02*
X7865D01*
Y19128D01*
X7885Y19132D01*
X7945Y19171D01*
X7984Y19231D01*
X7988Y19251D01*
D02*
G37*
G36*
X12145Y19504D02*
X12125Y19500D01*
X12065Y19460D01*
X12025Y19401D01*
X12021Y19381D01*
X12145D01*
Y19504D01*
D02*
G37*
G36*
X12245D02*
Y19381D01*
X12368D01*
X12364Y19401D01*
X12325Y19460D01*
X12265Y19500D01*
X12245Y19504D01*
D02*
G37*
G36*
X13228Y19494D02*
X13207Y19490D01*
X13148Y19451D01*
X13108Y19391D01*
X13104Y19371D01*
X13228D01*
Y19494D01*
D02*
G37*
G36*
X13328D02*
Y19371D01*
X13451D01*
X13447Y19391D01*
X13407Y19451D01*
X13348Y19490D01*
X13328Y19494D01*
D02*
G37*
G36*
X413Y19593D02*
X392Y19589D01*
X333Y19549D01*
X293Y19489D01*
X289Y19469D01*
X413D01*
Y19593D01*
D02*
G37*
G36*
X4922Y19652D02*
Y19528D01*
X5046D01*
X5042Y19549D01*
X5002Y19608D01*
X4942Y19648D01*
X4922Y19652D01*
D02*
G37*
G36*
X14202Y19662D02*
X14182Y19658D01*
X14122Y19618D01*
X14082Y19558D01*
X14078Y19538D01*
X14202D01*
Y19662D01*
D02*
G37*
G36*
X513Y19593D02*
Y19469D01*
X636D01*
X632Y19489D01*
X592Y19549D01*
X533Y19589D01*
X513Y19593D01*
D02*
G37*
G36*
X4822Y19652D02*
X4802Y19648D01*
X4742Y19608D01*
X4703Y19549D01*
X4699Y19528D01*
X4822D01*
Y19652D01*
D02*
G37*
G36*
X5046Y19428D02*
X4922D01*
Y19305D01*
X4942Y19309D01*
X5002Y19349D01*
X5042Y19408D01*
X5046Y19428D01*
D02*
G37*
G36*
X14202Y19438D02*
X14078D01*
X14082Y19418D01*
X14122Y19358D01*
X14182Y19319D01*
X14202Y19315D01*
Y19438D01*
D02*
G37*
G36*
X9056Y19425D02*
Y19302D01*
X9179D01*
X9175Y19322D01*
X9136Y19382D01*
X9076Y19421D01*
X9056Y19425D01*
D02*
G37*
G36*
X4822Y19428D02*
X4699D01*
X4703Y19408D01*
X4742Y19349D01*
X4802Y19309D01*
X4822Y19305D01*
Y19428D01*
D02*
G37*
G36*
X14425Y19438D02*
X14302D01*
Y19315D01*
X14322Y19319D01*
X14382Y19358D01*
X14421Y19418D01*
X14425Y19438D01*
D02*
G37*
G36*
X7765Y19475D02*
X7745Y19471D01*
X7685Y19431D01*
X7645Y19371D01*
X7641Y19351D01*
X7765D01*
Y19475D01*
D02*
G37*
G36*
X7865D02*
Y19351D01*
X7988D01*
X7984Y19371D01*
X7945Y19431D01*
X7885Y19471D01*
X7865Y19475D01*
D02*
G37*
G36*
X3769D02*
X3749Y19471D01*
X3689Y19431D01*
X3649Y19371D01*
X3645Y19351D01*
X3769D01*
Y19475D01*
D02*
G37*
G36*
X3869D02*
Y19351D01*
X3992D01*
X3988Y19371D01*
X3949Y19431D01*
X3889Y19471D01*
X3869Y19475D01*
D02*
G37*
G36*
X432Y16886D02*
X412Y16882D01*
X353Y16842D01*
X313Y16783D01*
X309Y16763D01*
X432D01*
Y16886D01*
D02*
G37*
G36*
X12073Y12430D02*
X11950D01*
Y12307D01*
X11970Y12311D01*
X12029Y12351D01*
X12069Y12410D01*
X12073Y12430D01*
D02*
G37*
G36*
X15580Y12578D02*
X15456D01*
X15460Y12558D01*
X15500Y12498D01*
X15560Y12458D01*
X15580Y12454D01*
Y12578D01*
D02*
G37*
G36*
X5607Y12253D02*
X5483D01*
Y12130D01*
X5503Y12134D01*
X5563Y12173D01*
X5603Y12233D01*
X5607Y12253D01*
D02*
G37*
G36*
X11850Y12430D02*
X11726D01*
X11730Y12410D01*
X11770Y12351D01*
X11829Y12311D01*
X11850Y12307D01*
Y12430D01*
D02*
G37*
G36*
X15803Y12578D02*
X15680D01*
Y12454D01*
X15700Y12458D01*
X15760Y12498D01*
X15799Y12558D01*
X15803Y12578D01*
D02*
G37*
G36*
X14379Y12627D02*
X14256D01*
X14260Y12607D01*
X14299Y12547D01*
X14359Y12508D01*
X14379Y12504D01*
Y12627D01*
D02*
G37*
G36*
X14603D02*
X14479D01*
Y12504D01*
X14499Y12508D01*
X14559Y12547D01*
X14599Y12607D01*
X14603Y12627D01*
D02*
G37*
G36*
X8070Y12607D02*
X7947D01*
X7951Y12587D01*
X7990Y12528D01*
X8050Y12488D01*
X8070Y12484D01*
Y12607D01*
D02*
G37*
G36*
X8294D02*
X8170D01*
Y12484D01*
X8190Y12488D01*
X8250Y12528D01*
X8290Y12587D01*
X8294Y12607D01*
D02*
G37*
G36*
X14379Y12142D02*
X14359Y12138D01*
X14299Y12098D01*
X14260Y12039D01*
X14256Y12019D01*
X14379D01*
Y12142D01*
D02*
G37*
G36*
X14479D02*
Y12019D01*
X14603D01*
X14599Y12039D01*
X14559Y12098D01*
X14499Y12138D01*
X14479Y12142D01*
D02*
G37*
G36*
X3650Y12028D02*
X3526D01*
X3531Y12007D01*
X3570Y11948D01*
X3630Y11908D01*
X3650Y11904D01*
Y12028D01*
D02*
G37*
G36*
X3873D02*
X3750D01*
Y11904D01*
X3770Y11908D01*
X3830Y11948D01*
X3869Y12007D01*
X3873Y12028D01*
D02*
G37*
G36*
X15570Y12152D02*
X15550Y12148D01*
X15490Y12108D01*
X15451Y12049D01*
X15447Y12028D01*
X15570D01*
Y12152D01*
D02*
G37*
G36*
X3750Y12251D02*
Y12128D01*
X3873D01*
X3869Y12148D01*
X3830Y12207D01*
X3770Y12247D01*
X3750Y12251D01*
D02*
G37*
G36*
X5383Y12253D02*
X5260D01*
X5264Y12233D01*
X5303Y12173D01*
X5363Y12134D01*
X5383Y12130D01*
Y12253D01*
D02*
G37*
G36*
X15670Y12152D02*
Y12028D01*
X15794D01*
X15790Y12049D01*
X15750Y12108D01*
X15690Y12148D01*
X15670Y12152D01*
D02*
G37*
G36*
X3650Y12251D02*
X3630Y12247D01*
X3570Y12207D01*
X3531Y12148D01*
X3526Y12128D01*
X3650D01*
Y12251D01*
D02*
G37*
G36*
X8070Y12831D02*
X8050Y12827D01*
X7990Y12787D01*
X7951Y12728D01*
X7947Y12707D01*
X8070D01*
Y12831D01*
D02*
G37*
G36*
X8170D02*
Y12707D01*
X8294D01*
X8290Y12728D01*
X8250Y12787D01*
X8190Y12827D01*
X8170Y12831D01*
D02*
G37*
G36*
X15580Y12801D02*
X15560Y12797D01*
X15500Y12758D01*
X15460Y12698D01*
X15456Y12678D01*
X15580D01*
Y12801D01*
D02*
G37*
G36*
X15680D02*
Y12678D01*
X15803D01*
X15799Y12698D01*
X15760Y12758D01*
X15700Y12797D01*
X15680Y12801D01*
D02*
G37*
G36*
X14379Y12851D02*
X14359Y12847D01*
X14299Y12807D01*
X14260Y12747D01*
X14256Y12727D01*
X14379D01*
Y12851D01*
D02*
G37*
G36*
X7145Y12979D02*
X7125Y12975D01*
X7065Y12935D01*
X7025Y12875D01*
X7021Y12855D01*
X7145D01*
Y12979D01*
D02*
G37*
G36*
X7245D02*
Y12855D01*
X7368D01*
X7364Y12875D01*
X7325Y12935D01*
X7265Y12975D01*
X7245Y12979D01*
D02*
G37*
G36*
X14479Y12851D02*
Y12727D01*
X14603D01*
X14599Y12747D01*
X14559Y12807D01*
X14499Y12847D01*
X14479Y12851D01*
D02*
G37*
G36*
X5483Y12870D02*
Y12747D01*
X5607D01*
X5603Y12767D01*
X5563Y12827D01*
X5503Y12866D01*
X5483Y12870D01*
D02*
G37*
G36*
X10993Y12657D02*
X10870D01*
X10874Y12636D01*
X10914Y12577D01*
X10973Y12537D01*
X10993Y12533D01*
Y12657D01*
D02*
G37*
G36*
X7145Y12755D02*
X7021D01*
X7025Y12735D01*
X7065Y12675D01*
X7125Y12636D01*
X7145Y12632D01*
Y12755D01*
D02*
G37*
G36*
X11850Y12654D02*
X11829Y12650D01*
X11770Y12610D01*
X11730Y12551D01*
X11726Y12530D01*
X11850D01*
Y12654D01*
D02*
G37*
G36*
X11950D02*
Y12530D01*
X12073D01*
X12069Y12551D01*
X12029Y12610D01*
X11970Y12650D01*
X11950Y12654D01*
D02*
G37*
G36*
X7368Y12755D02*
X7245D01*
Y12632D01*
X7265Y12636D01*
X7325Y12675D01*
X7364Y12735D01*
X7368Y12755D01*
D02*
G37*
G36*
X413Y12794D02*
X289D01*
X293Y12774D01*
X333Y12715D01*
X392Y12675D01*
X413Y12671D01*
Y12794D01*
D02*
G37*
G36*
X636D02*
X513D01*
Y12671D01*
X533Y12675D01*
X592Y12715D01*
X632Y12774D01*
X636Y12794D01*
D02*
G37*
G36*
X8966Y12765D02*
X8842D01*
X8846Y12745D01*
X8886Y12685D01*
X8946Y12645D01*
X8966Y12641D01*
Y12765D01*
D02*
G37*
G36*
X9189D02*
X9066D01*
Y12641D01*
X9086Y12645D01*
X9145Y12685D01*
X9185Y12745D01*
X9189Y12765D01*
D02*
G37*
G36*
X7245Y12024D02*
Y11900D01*
X7368D01*
X7364Y11921D01*
X7325Y11980D01*
X7265Y12020D01*
X7245Y12024D01*
D02*
G37*
G36*
X403Y11446D02*
X279D01*
X283Y11426D01*
X323Y11366D01*
X383Y11327D01*
X403Y11323D01*
Y11446D01*
D02*
G37*
G36*
X626D02*
X503D01*
Y11323D01*
X523Y11327D01*
X582Y11366D01*
X622Y11426D01*
X626Y11446D01*
D02*
G37*
G36*
X8060Y11604D02*
X7937D01*
X7941Y11583D01*
X7981Y11524D01*
X8040Y11484D01*
X8060Y11480D01*
Y11604D01*
D02*
G37*
G36*
X3761Y11620D02*
Y11497D01*
X3884D01*
X3880Y11517D01*
X3840Y11577D01*
X3781Y11616D01*
X3761Y11620D01*
D02*
G37*
G36*
X6948Y11660D02*
X6928Y11656D01*
X6868Y11616D01*
X6829Y11556D01*
X6825Y11536D01*
X6948D01*
Y11660D01*
D02*
G37*
G36*
X8284Y11604D02*
X8160D01*
Y11480D01*
X8180Y11484D01*
X8240Y11524D01*
X8280Y11583D01*
X8284Y11604D01*
D02*
G37*
G36*
X3661Y11620D02*
X3640Y11616D01*
X3581Y11577D01*
X3541Y11517D01*
X3537Y11497D01*
X3661D01*
Y11620D01*
D02*
G37*
G36*
X6948Y11436D02*
X6825D01*
X6829Y11416D01*
X6868Y11357D01*
X6928Y11317D01*
X6948Y11313D01*
Y11436D01*
D02*
G37*
G36*
X7172D02*
X7048D01*
Y11313D01*
X7068Y11317D01*
X7128Y11357D01*
X7168Y11416D01*
X7172Y11436D01*
D02*
G37*
G36*
X14379Y11918D02*
X14256D01*
X14260Y11898D01*
X14299Y11839D01*
X14359Y11799D01*
X14379Y11795D01*
Y11918D01*
D02*
G37*
G36*
X14603D02*
X14479D01*
Y11795D01*
X14499Y11799D01*
X14559Y11839D01*
X14599Y11898D01*
X14603Y11918D01*
D02*
G37*
G36*
X10915Y11876D02*
X10894Y11872D01*
X10835Y11832D01*
X10795Y11773D01*
X10791Y11753D01*
X10915D01*
Y11876D01*
D02*
G37*
G36*
X11015D02*
Y11753D01*
X11138D01*
X11134Y11773D01*
X11094Y11832D01*
X11035Y11872D01*
X11015Y11876D01*
D02*
G37*
G36*
X15570Y11928D02*
X15447D01*
X15451Y11908D01*
X15490Y11849D01*
X15550Y11809D01*
X15570Y11805D01*
Y11928D01*
D02*
G37*
G36*
X9085Y11994D02*
Y11871D01*
X9209D01*
X9205Y11891D01*
X9165Y11951D01*
X9106Y11990D01*
X9085Y11994D01*
D02*
G37*
G36*
X7145Y12024D02*
X7125Y12020D01*
X7065Y11980D01*
X7025Y11921D01*
X7021Y11900D01*
X7145D01*
Y12024D01*
D02*
G37*
G36*
X15794Y11928D02*
X15670D01*
Y11805D01*
X15690Y11809D01*
X15750Y11849D01*
X15790Y11908D01*
X15794Y11928D01*
D02*
G37*
G36*
X8985Y11994D02*
X8965Y11990D01*
X8906Y11951D01*
X8866Y11891D01*
X8862Y11871D01*
X8985D01*
Y11994D01*
D02*
G37*
G36*
X503Y11670D02*
Y11546D01*
X626D01*
X622Y11566D01*
X582Y11626D01*
X523Y11666D01*
X503Y11670D01*
D02*
G37*
G36*
X8985Y11771D02*
X8862D01*
X8866Y11751D01*
X8906Y11691D01*
X8965Y11651D01*
X8985Y11647D01*
Y11771D01*
D02*
G37*
G36*
X7048Y11660D02*
Y11536D01*
X7172D01*
X7168Y11556D01*
X7128Y11616D01*
X7068Y11656D01*
X7048Y11660D01*
D02*
G37*
G36*
X403Y11670D02*
X383Y11666D01*
X323Y11626D01*
X283Y11566D01*
X279Y11546D01*
X403D01*
Y11670D01*
D02*
G37*
G36*
X9209Y11771D02*
X9085D01*
Y11647D01*
X9106Y11651D01*
X9165Y11691D01*
X9205Y11751D01*
X9209Y11771D01*
D02*
G37*
G36*
X8060Y11827D02*
X8040Y11823D01*
X7981Y11783D01*
X7941Y11724D01*
X7937Y11704D01*
X8060D01*
Y11827D01*
D02*
G37*
G36*
X8160D02*
Y11704D01*
X8284D01*
X8280Y11724D01*
X8240Y11783D01*
X8180Y11823D01*
X8160Y11827D01*
D02*
G37*
G36*
X7145Y11800D02*
X7021D01*
X7025Y11780D01*
X7065Y11721D01*
X7125Y11681D01*
X7145Y11677D01*
Y11800D01*
D02*
G37*
G36*
X7368D02*
X7245D01*
Y11677D01*
X7265Y11681D01*
X7325Y11721D01*
X7364Y11780D01*
X7368Y11800D01*
D02*
G37*
G36*
X8966Y12988D02*
X8946Y12984D01*
X8886Y12945D01*
X8846Y12885D01*
X8842Y12865D01*
X8966D01*
Y12988D01*
D02*
G37*
G36*
X1561Y15462D02*
X1438D01*
Y15338D01*
X1458Y15342D01*
X1518Y15382D01*
X1557Y15442D01*
X1561Y15462D01*
D02*
G37*
G36*
X10924Y15577D02*
X10904Y15573D01*
X10845Y15533D01*
X10805Y15474D01*
X10801Y15454D01*
X10924D01*
Y15577D01*
D02*
G37*
G36*
X675Y15422D02*
X552D01*
Y15299D01*
X572Y15303D01*
X632Y15343D01*
X671Y15402D01*
X675Y15422D01*
D02*
G37*
G36*
X1338Y15462D02*
X1214D01*
X1218Y15442D01*
X1258Y15382D01*
X1318Y15342D01*
X1338Y15338D01*
Y15462D01*
D02*
G37*
G36*
X11024Y15577D02*
Y15454D01*
X11148D01*
X11144Y15474D01*
X11104Y15533D01*
X11045Y15573D01*
X11024Y15577D01*
D02*
G37*
G36*
X452Y15646D02*
X432Y15642D01*
X372Y15602D01*
X332Y15543D01*
X328Y15522D01*
X452D01*
Y15646D01*
D02*
G37*
G36*
X552D02*
Y15522D01*
X675D01*
X671Y15543D01*
X632Y15602D01*
X572Y15642D01*
X552Y15646D01*
D02*
G37*
G36*
X12204Y15587D02*
X12184Y15583D01*
X12124Y15543D01*
X12084Y15484D01*
X12080Y15463D01*
X12204D01*
Y15587D01*
D02*
G37*
G36*
X12304D02*
Y15463D01*
X12427D01*
X12423Y15484D01*
X12384Y15543D01*
X12324Y15583D01*
X12304Y15587D01*
D02*
G37*
G36*
X5826Y14898D02*
X5806Y14894D01*
X5746Y14854D01*
X5706Y14795D01*
X5702Y14774D01*
X5826D01*
Y14898D01*
D02*
G37*
G36*
X5926D02*
Y14774D01*
X6049D01*
X6045Y14795D01*
X6006Y14854D01*
X5946Y14894D01*
X5926Y14898D01*
D02*
G37*
G36*
X11584Y14731D02*
X11564Y14727D01*
X11504Y14687D01*
X11464Y14627D01*
X11460Y14607D01*
X11584D01*
Y14731D01*
D02*
G37*
G36*
X11684D02*
Y14607D01*
X11807D01*
X11803Y14627D01*
X11764Y14687D01*
X11704Y14727D01*
X11684Y14731D01*
D02*
G37*
G36*
X10924Y15354D02*
X10801D01*
X10805Y15333D01*
X10845Y15274D01*
X10904Y15234D01*
X10924Y15230D01*
Y15354D01*
D02*
G37*
G36*
X12427Y15363D02*
X12304D01*
Y15240D01*
X12324Y15244D01*
X12384Y15284D01*
X12423Y15343D01*
X12427Y15363D01*
D02*
G37*
G36*
X452Y15422D02*
X328D01*
X332Y15402D01*
X372Y15343D01*
X432Y15303D01*
X452Y15299D01*
Y15422D01*
D02*
G37*
G36*
X11148Y15354D02*
X11024D01*
Y15230D01*
X11045Y15234D01*
X11104Y15274D01*
X11144Y15333D01*
X11148Y15354D01*
D02*
G37*
G36*
X12204Y15363D02*
X12080D01*
X12084Y15343D01*
X12124Y15284D01*
X12184Y15244D01*
X12204Y15240D01*
Y15363D01*
D02*
G37*
G36*
X656Y16663D02*
X532D01*
Y16539D01*
X552Y16543D01*
X612Y16583D01*
X652Y16642D01*
X656Y16663D01*
D02*
G37*
G36*
X1348Y16692D02*
X1224D01*
X1228Y16672D01*
X1268Y16612D01*
X1327Y16573D01*
X1348Y16569D01*
Y16692D01*
D02*
G37*
G36*
X15813Y16643D02*
X15690D01*
Y16519D01*
X15710Y16523D01*
X15769Y16563D01*
X15809Y16623D01*
X15813Y16643D01*
D02*
G37*
G36*
X432Y16663D02*
X309D01*
X313Y16642D01*
X353Y16583D01*
X412Y16543D01*
X432Y16539D01*
Y16663D01*
D02*
G37*
G36*
X1571Y16692D02*
X1448D01*
Y16569D01*
X1468Y16573D01*
X1527Y16612D01*
X1567Y16672D01*
X1571Y16692D01*
D02*
G37*
G36*
X15590Y16866D02*
X15570Y16862D01*
X15510Y16823D01*
X15470Y16763D01*
X15466Y16743D01*
X15590D01*
Y16866D01*
D02*
G37*
G36*
X15690D02*
Y16743D01*
X15813D01*
X15809Y16763D01*
X15769Y16823D01*
X15710Y16862D01*
X15690Y16866D01*
D02*
G37*
G36*
X14222D02*
X14201Y16862D01*
X14142Y16823D01*
X14102Y16763D01*
X14098Y16743D01*
X14222D01*
Y16866D01*
D02*
G37*
G36*
X14322D02*
Y16743D01*
X14445D01*
X14441Y16763D01*
X14401Y16823D01*
X14342Y16862D01*
X14322Y16866D01*
D02*
G37*
G36*
X13080Y15905D02*
X12956D01*
X12960Y15885D01*
X13000Y15825D01*
X13060Y15785D01*
X13080Y15781D01*
Y15905D01*
D02*
G37*
G36*
X13303D02*
X13180D01*
Y15781D01*
X13200Y15785D01*
X13260Y15825D01*
X13299Y15885D01*
X13303Y15905D01*
D02*
G37*
G36*
X1338Y15685D02*
X1318Y15681D01*
X1258Y15642D01*
X1218Y15582D01*
X1214Y15562D01*
X1338D01*
Y15685D01*
D02*
G37*
G36*
X1438D02*
Y15562D01*
X1561D01*
X1557Y15582D01*
X1518Y15642D01*
X1458Y15681D01*
X1438Y15685D01*
D02*
G37*
G36*
X13080Y16128D02*
X13060Y16124D01*
X13000Y16084D01*
X12960Y16025D01*
X12956Y16005D01*
X13080D01*
Y16128D01*
D02*
G37*
G36*
X14445Y16643D02*
X14322D01*
Y16519D01*
X14342Y16523D01*
X14401Y16563D01*
X14441Y16623D01*
X14445Y16643D01*
D02*
G37*
G36*
X15590D02*
X15466D01*
X15470Y16623D01*
X15510Y16563D01*
X15570Y16523D01*
X15590Y16519D01*
Y16643D01*
D02*
G37*
G36*
X13180Y16128D02*
Y16005D01*
X13303D01*
X13299Y16025D01*
X13260Y16084D01*
X13200Y16124D01*
X13180Y16128D01*
D02*
G37*
G36*
X14222Y16643D02*
X14098D01*
X14102Y16623D01*
X14142Y16563D01*
X14201Y16523D01*
X14222Y16519D01*
Y16643D01*
D02*
G37*
G36*
X6049Y14674D02*
X5926D01*
Y14551D01*
X5946Y14555D01*
X6006Y14595D01*
X6045Y14654D01*
X6049Y14674D01*
D02*
G37*
G36*
X7388Y13572D02*
X7265D01*
Y13449D01*
X7285Y13453D01*
X7344Y13492D01*
X7384Y13552D01*
X7388Y13572D01*
D02*
G37*
G36*
X8976Y13756D02*
X8955Y13752D01*
X8896Y13712D01*
X8856Y13653D01*
X8852Y13633D01*
X8976D01*
Y13756D01*
D02*
G37*
G36*
X8274Y13562D02*
X8150D01*
Y13439D01*
X8171Y13443D01*
X8230Y13482D01*
X8270Y13542D01*
X8274Y13562D01*
D02*
G37*
G36*
X7165Y13572D02*
X7041D01*
X7045Y13552D01*
X7085Y13492D01*
X7144Y13453D01*
X7165Y13449D01*
Y13572D01*
D02*
G37*
G36*
X9076Y13756D02*
Y13633D01*
X9199D01*
X9195Y13653D01*
X9155Y13712D01*
X9096Y13752D01*
X9076Y13756D01*
D02*
G37*
G36*
X7165Y13796D02*
X7144Y13792D01*
X7085Y13752D01*
X7045Y13692D01*
X7041Y13672D01*
X7165D01*
Y13796D01*
D02*
G37*
G36*
X7265D02*
Y13672D01*
X7388D01*
X7384Y13692D01*
X7344Y13752D01*
X7285Y13792D01*
X7265Y13796D01*
D02*
G37*
G36*
X8050Y13786D02*
X8030Y13782D01*
X7971Y13742D01*
X7931Y13682D01*
X7927Y13662D01*
X8050D01*
Y13786D01*
D02*
G37*
G36*
X8150D02*
Y13662D01*
X8274D01*
X8270Y13682D01*
X8230Y13742D01*
X8171Y13782D01*
X8150Y13786D01*
D02*
G37*
G36*
X513Y13018D02*
Y12894D01*
X636D01*
X632Y12915D01*
X592Y12974D01*
X533Y13014D01*
X513Y13018D01*
D02*
G37*
G36*
X5587Y13228D02*
X5463D01*
Y13104D01*
X5484Y13108D01*
X5543Y13148D01*
X5583Y13207D01*
X5587Y13228D01*
D02*
G37*
G36*
X9066Y12988D02*
Y12865D01*
X9189D01*
X9185Y12885D01*
X9145Y12945D01*
X9086Y12984D01*
X9066Y12988D01*
D02*
G37*
G36*
X413Y13018D02*
X392Y13014D01*
X333Y12974D01*
X293Y12915D01*
X289Y12894D01*
X413D01*
Y13018D01*
D02*
G37*
G36*
X10983Y13254D02*
X10963Y13250D01*
X10904Y13210D01*
X10864Y13151D01*
X10860Y13131D01*
X10983D01*
Y13254D01*
D02*
G37*
G36*
X9199Y13533D02*
X9076D01*
Y13409D01*
X9096Y13413D01*
X9155Y13453D01*
X9195Y13512D01*
X9199Y13533D01*
D02*
G37*
G36*
X8050Y13562D02*
X7927D01*
X7931Y13542D01*
X7971Y13482D01*
X8030Y13443D01*
X8050Y13439D01*
Y13562D01*
D02*
G37*
G36*
X14183Y15849D02*
X14129Y15838D01*
X14084Y15808D01*
X14053Y15762D01*
X14043Y15709D01*
X14053Y15655D01*
X14083Y15611D01*
Y13523D01*
X14053Y13479D01*
X14043Y13425D01*
X14053Y13371D01*
X14084Y13326D01*
X14129Y13295D01*
X14183Y13285D01*
X14237Y13295D01*
X14282Y13326D01*
X14313Y13371D01*
X14324Y13425D01*
X14313Y13479D01*
X14283Y13523D01*
Y15611D01*
X14313Y15655D01*
X14324Y15709D01*
X14313Y15762D01*
X14282Y15808D01*
X14237Y15838D01*
X14183Y15849D01*
D02*
G37*
G36*
X8976Y13533D02*
X8852D01*
X8856Y13512D01*
X8896Y13453D01*
X8955Y13413D01*
X8976Y13409D01*
Y13533D01*
D02*
G37*
G36*
X10265Y14438D02*
X10141D01*
X10145Y14418D01*
X10185Y14358D01*
X10245Y14319D01*
X10265Y14315D01*
Y14438D01*
D02*
G37*
G36*
X10488D02*
X10365D01*
Y14315D01*
X10385Y14319D01*
X10445Y14358D01*
X10484Y14418D01*
X10488Y14438D01*
D02*
G37*
G36*
X432Y14416D02*
X412Y14412D01*
X353Y14372D01*
X313Y14312D01*
X309Y14292D01*
X432D01*
Y14416D01*
D02*
G37*
G36*
X532D02*
Y14292D01*
X656D01*
X652Y14312D01*
X612Y14372D01*
X552Y14412D01*
X532Y14416D01*
D02*
G37*
G36*
X11584Y14507D02*
X11460D01*
X11464Y14487D01*
X11504Y14427D01*
X11564Y14388D01*
X11584Y14384D01*
Y14507D01*
D02*
G37*
G36*
X10365Y14662D02*
Y14538D01*
X10488D01*
X10484Y14558D01*
X10445Y14618D01*
X10385Y14658D01*
X10365Y14662D01*
D02*
G37*
G36*
X5826Y14674D02*
X5702D01*
X5706Y14654D01*
X5746Y14595D01*
X5806Y14555D01*
X5826Y14551D01*
Y14674D01*
D02*
G37*
G36*
X11807Y14507D02*
X11684D01*
Y14384D01*
X11704Y14388D01*
X11764Y14427D01*
X11803Y14487D01*
X11807Y14507D01*
D02*
G37*
G36*
X10265Y14662D02*
X10245Y14658D01*
X10185Y14618D01*
X10145Y14558D01*
X10141Y14538D01*
X10265D01*
Y14662D01*
D02*
G37*
G36*
X12231Y13838D02*
X12107D01*
Y13714D01*
X12127Y13718D01*
X12187Y13758D01*
X12227Y13818D01*
X12231Y13838D01*
D02*
G37*
G36*
X5483Y13855D02*
Y13731D01*
X5607D01*
X5603Y13751D01*
X5563Y13811D01*
X5503Y13851D01*
X5483Y13855D01*
D02*
G37*
G36*
X10974Y13827D02*
X10850D01*
X10854Y13807D01*
X10894Y13747D01*
X10953Y13708D01*
X10974Y13704D01*
Y13827D01*
D02*
G37*
G36*
X12007Y13838D02*
X11884D01*
X11888Y13818D01*
X11927Y13758D01*
X11987Y13718D01*
X12007Y13714D01*
Y13838D01*
D02*
G37*
G36*
X10974Y14051D02*
X10953Y14047D01*
X10894Y14007D01*
X10854Y13947D01*
X10850Y13927D01*
X10974D01*
Y14051D01*
D02*
G37*
G36*
X432Y14192D02*
X309D01*
X313Y14172D01*
X353Y14112D01*
X412Y14073D01*
X432Y14069D01*
Y14192D01*
D02*
G37*
G36*
X656D02*
X532D01*
Y14069D01*
X552Y14073D01*
X612Y14112D01*
X652Y14172D01*
X656Y14192D01*
D02*
G37*
G36*
X12007Y14061D02*
X11987Y14057D01*
X11927Y14018D01*
X11888Y13958D01*
X11884Y13938D01*
X12007D01*
Y14061D01*
D02*
G37*
G36*
X12107D02*
Y13938D01*
X12231D01*
X12227Y13958D01*
X12187Y14018D01*
X12127Y14057D01*
X12107Y14061D01*
D02*
G37*
%LPD*%
D10*
X10305Y8150D02*
D03*
Y8750D02*
D03*
X9715Y8150D02*
D03*
Y8750D02*
D03*
X9134Y8159D02*
D03*
Y8759D02*
D03*
X8533Y8160D02*
D03*
Y8760D02*
D03*
D24*
X10295Y8759D02*
X10325Y8789D01*
X8071Y6555D02*
Y9291D01*
X8061Y9301D02*
X8071Y9291D01*
X7520Y6004D02*
X8071Y6555D01*
X5413Y14193D02*
Y18061D01*
X5394Y18081D02*
X5413Y18061D01*
X13297Y18100D02*
X13307Y18091D01*
X12185Y18100D02*
X13297D01*
X11033Y18081D02*
X12165D01*
X12185Y18100D01*
X9911Y18061D02*
X9931Y18081D01*
X11033D01*
X8760Y18071D02*
X8770Y18061D01*
X9911D01*
X7579Y18071D02*
X7579Y18071D01*
X8760D01*
X6348Y18061D02*
X6358Y18071D01*
X7579D01*
X5413Y18061D02*
X6348D01*
X14183Y13425D02*
Y15709D01*
X10896Y4744D02*
Y9154D01*
Y4744D02*
X10915Y4724D01*
X10325Y8789D02*
Y9252D01*
X8858Y9055D02*
Y9173D01*
X8848Y9045D02*
X8858Y9055D01*
X7271Y9281D02*
X7274D01*
X5797Y7808D02*
X7271Y9281D01*
X7018Y7539D02*
Y8455D01*
X7657Y9094D01*
X7854Y7195D02*
Y8967D01*
X7431Y6772D02*
X7854Y7195D01*
X6496Y7805D02*
X6516Y7825D01*
X6496Y6260D02*
Y7805D01*
X8848Y9045D02*
X9134Y8759D01*
X9695Y9094D02*
X9715Y9075D01*
Y8750D02*
Y9075D01*
X10295Y8759D02*
X10305Y8750D01*
X5581Y8012D02*
X6850Y9281D01*
X6870D01*
X7657Y9094D02*
Y9262D01*
X8445Y8848D02*
X8533Y8760D01*
X8445Y8848D02*
Y9183D01*
D25*
X12648Y7185D02*
X12943Y7480D01*
X12136Y7185D02*
X12648D01*
D26*
X13671Y6689D02*
X14646Y7663D01*
X13671Y5846D02*
Y6689D01*
X5669Y15718D02*
X9665D01*
X9715Y15669D01*
X9734Y15689D01*
X11319Y11890D02*
Y12894D01*
Y14104D01*
X9734Y15689D02*
X11319Y14104D01*
X5108Y12490D02*
Y16152D01*
X4833Y12096D02*
Y15541D01*
X4823Y15551D02*
X4833Y15541D01*
X4528Y11732D02*
Y14528D01*
X4242Y11309D02*
Y13573D01*
X13248Y5276D02*
Y7266D01*
X14646Y8663D01*
D28*
X6093Y3740D02*
Y4980D01*
Y3740D02*
X7008Y2825D01*
X10925D01*
D29*
X10009Y5472D02*
X10659D01*
X8435Y3898D02*
X10009Y5472D01*
X8138Y3954D02*
X9952Y5768D01*
X8435Y3622D02*
Y3898D01*
X8138Y3622D02*
Y3954D01*
X9952Y5768D02*
X10659D01*
X6447Y3691D02*
Y5758D01*
Y3691D02*
X6959Y3179D01*
X10758D01*
X11535Y3957D01*
X12136D01*
D30*
X9213Y1535D02*
D03*
X7638D02*
D03*
X13671Y5846D02*
D03*
X8061Y9301D02*
D03*
X5413Y14193D02*
D03*
X13307Y18091D02*
D03*
X12185Y18100D02*
D03*
X11033Y18081D02*
D03*
X9911Y18061D02*
D03*
X8760Y18071D02*
D03*
X7579Y18071D02*
D03*
X6348Y18061D02*
D03*
X5669Y15718D02*
D03*
X5394Y18081D02*
D03*
X14183Y15709D02*
D03*
Y13425D02*
D03*
X11319Y11890D02*
D03*
Y12894D02*
D03*
X10896Y9154D02*
D03*
X10325Y9252D02*
D03*
X8858Y9173D02*
D03*
X5108Y12490D02*
D03*
Y16152D02*
D03*
X4833Y12096D02*
D03*
X4823Y15551D02*
D03*
X4528Y11732D02*
D03*
Y14528D02*
D03*
X4242Y11309D02*
D03*
Y13573D02*
D03*
X7018Y7539D02*
D03*
X7520Y6004D02*
D03*
X7274Y9281D02*
D03*
X5797Y7808D02*
D03*
X7854Y8967D02*
D03*
X7431Y6772D02*
D03*
X6496Y6260D02*
D03*
X6516Y7825D02*
D03*
X9695Y9094D02*
D03*
X5581Y8012D02*
D03*
X10659Y5472D02*
D03*
X8435Y3622D02*
D03*
X8138D02*
D03*
X6447Y5758D02*
D03*
X10925Y2825D02*
D03*
X10659Y5768D02*
D03*
X13248Y5276D02*
D03*
X6093Y4980D02*
D03*
X12943Y7480D02*
D03*
X10915Y4724D02*
D03*
X6870Y9281D02*
D03*
X7657Y9262D02*
D03*
X8445Y9183D02*
D03*
D31*
X7323Y650D02*
D03*
X9528Y689D02*
D03*
D32*
X16935Y20856D02*
D03*
X-1585D02*
D03*
D33*
X1132Y20297D02*
D03*
X1677Y21415D02*
D03*
X3313Y20297D02*
D03*
X4404D02*
D03*
X5494D02*
D03*
X6585D02*
D03*
X7675D02*
D03*
X8766D02*
D03*
X9856D02*
D03*
X10947D02*
D03*
X12037D02*
D03*
X13128D02*
D03*
X2222D02*
D03*
X2768Y21415D02*
D03*
X3858D02*
D03*
X4949D02*
D03*
X6039D02*
D03*
X7130D02*
D03*
X8220D02*
D03*
X9311D02*
D03*
X10402D02*
D03*
X11492D02*
D03*
X12583D02*
D03*
X13673D02*
D03*
X14218Y20297D02*
D03*
D34*
X650Y6634D02*
D03*
Y5650D02*
D03*
Y4665D02*
D03*
D35*
X1181Y1181D02*
D03*
X14783Y1132D02*
D03*
D36*
X4094Y659D02*
D03*
X3094D02*
D03*
D37*
X14646Y8663D02*
D03*
Y7663D02*
D03*
Y6663D02*
D03*
Y5663D02*
D03*
D38*
X10571Y6516D02*
D03*
X10532Y7028D02*
D03*
X13740Y7234D02*
D03*
X9685Y7549D02*
D03*
X8524Y7579D02*
D03*
X8061Y5846D02*
D03*
X8081Y4980D02*
D03*
X8878Y5886D02*
D03*
X8858Y6870D02*
D03*
X2618Y1988D02*
D03*
X1732Y2717D02*
D03*
X541Y2864D02*
D03*
X5354Y1126D02*
D03*
X5404Y335D02*
D03*
Y1890D02*
D03*
X6112Y364D02*
D03*
X6122Y1171D02*
D03*
X6171Y1860D02*
D03*
X6053Y3169D02*
D03*
X5413Y4882D02*
D03*
X3612Y7264D02*
D03*
X3632Y5719D02*
D03*
X5876Y14724D02*
D03*
X8110Y11654D02*
D03*
X8120Y12657D02*
D03*
X8100Y13612D02*
D03*
X9035Y11821D02*
D03*
X9016Y12815D02*
D03*
X9026Y13583D02*
D03*
X7195Y11850D02*
D03*
Y12805D02*
D03*
X7215Y13622D02*
D03*
X7461Y8228D02*
D03*
X5866Y9567D02*
D03*
X5157Y8327D02*
D03*
X5118Y9813D02*
D03*
X4035Y10630D02*
D03*
X3533Y8524D02*
D03*
X2943Y9596D02*
D03*
X1663Y8022D02*
D03*
Y9203D02*
D03*
X433Y7844D02*
D03*
X463Y9124D02*
D03*
X443Y10394D02*
D03*
X10837Y2254D02*
D03*
X10453Y3661D02*
D03*
X12106Y4626D02*
D03*
X13740Y5482D02*
D03*
X12539Y8967D02*
D03*
X11526D02*
D03*
X12067Y9744D02*
D03*
X10935D02*
D03*
X11900Y10463D02*
D03*
X10679Y10443D02*
D03*
X14724Y9518D02*
D03*
X14587Y4439D02*
D03*
X13159Y3150D02*
D03*
X10453Y1427D02*
D03*
X11575Y1388D02*
D03*
X12992Y1378D02*
D03*
X12972Y404D02*
D03*
X11594D02*
D03*
X10423Y413D02*
D03*
X15522Y2687D02*
D03*
X15551Y3986D02*
D03*
X15591Y6102D02*
D03*
X15571Y5049D02*
D03*
X15600Y6949D02*
D03*
Y8169D02*
D03*
X15591Y9341D02*
D03*
X14272Y11260D02*
D03*
X15581Y10128D02*
D03*
X15591Y11152D02*
D03*
X12510Y11368D02*
D03*
X12057Y13888D02*
D03*
X11900Y12480D02*
D03*
X15620Y11978D02*
D03*
X14429Y11968D02*
D03*
Y12677D02*
D03*
X15630Y12628D02*
D03*
X15640Y16693D02*
D03*
X15630Y17884D02*
D03*
X15669Y18986D02*
D03*
X11634Y14557D02*
D03*
X10315Y14488D02*
D03*
X10974Y15404D02*
D03*
X12254Y15413D02*
D03*
X13130Y15955D02*
D03*
X14272Y16693D02*
D03*
X14282Y17884D02*
D03*
X14252Y19488D02*
D03*
X13278Y19321D02*
D03*
X12215Y18612D02*
D03*
X12195Y19331D02*
D03*
X11112Y18514D02*
D03*
X11171Y19173D02*
D03*
X10010Y18760D02*
D03*
X8524Y18593D02*
D03*
X9006Y19252D02*
D03*
X7815Y19301D02*
D03*
X4872Y19478D02*
D03*
X3819Y19301D02*
D03*
X6969Y18730D02*
D03*
X5955Y18563D02*
D03*
X4528Y18228D02*
D03*
X3425Y18553D02*
D03*
X2776Y19183D02*
D03*
X2411Y17323D02*
D03*
X2431Y18376D02*
D03*
X1388Y15512D02*
D03*
X1398Y16742D02*
D03*
Y17726D02*
D03*
X453Y11496D02*
D03*
X463Y12844D02*
D03*
X482Y14242D02*
D03*
X502Y15472D02*
D03*
X482Y16713D02*
D03*
X453Y17746D02*
D03*
X15620Y20896D02*
D03*
X138Y20866D02*
D03*
X463Y19419D02*
D03*
X1398Y18809D02*
D03*
X423Y18770D02*
D03*
X8258Y9606D02*
D03*
X6319Y10138D02*
D03*
X5132Y10934D02*
D03*
X10974Y10916D02*
D03*
X10965Y11319D02*
D03*
X11024Y13877D02*
D03*
X11033Y13081D02*
D03*
X11043Y12707D02*
D03*
X10965Y11703D02*
D03*
X5413Y13278D02*
D03*
X5433Y13681D02*
D03*
Y12303D02*
D03*
X3700Y12078D02*
D03*
X6998Y11486D02*
D03*
X3711Y11447D02*
D03*
X5433Y12697D02*
D03*
X7196Y1972D02*
D03*
X7955Y1122D02*
D03*
X8917Y1161D02*
D03*
D39*
X12136Y3957D02*
D03*
Y7185D02*
D03*
M02*
