G04 Layer_Color=16711935*
%FSLAX24Y24*%
%MOIN*%
G70*
G01*
G75*
%ADD24C,0.0118*%
%ADD47C,0.0039*%
D24*
X15256Y0D02*
G03*
X16024Y768I0J768D01*
G01*
X0Y650D02*
G03*
X650Y0I650J0D01*
G01*
X16506Y19596D02*
G03*
X16024Y19114I0J-482D01*
G01*
X0Y19085D02*
G03*
X-512Y19596I-512J0D01*
G01*
X-2175Y22047D02*
G03*
X-2333Y21890I0J-157D01*
G01*
Y19724D02*
G03*
X-2205Y19596I128J0D01*
G01*
X17746Y21939D02*
G03*
X17638Y22047I-108J0D01*
G01*
X650Y0D02*
X15256D01*
X16506Y19596D02*
X17746D01*
X16024Y768D02*
Y19114D01*
X0Y650D02*
Y19085D01*
X-2205Y19596D02*
X-512D01*
X-2333Y19724D02*
Y21890D01*
X-2175Y22047D02*
X17638D01*
X17746Y19596D02*
Y21939D01*
D47*
X-2905Y0D02*
X491D01*
X-2905Y22047D02*
X-2334D01*
X-2805Y0D02*
Y9859D01*
Y11909D02*
Y22047D01*
Y0D02*
X-2605Y600D01*
X-3005D02*
X-2805Y0D01*
X-3005Y21447D02*
X-2805Y22047D01*
X-2605Y21447D01*
X17746Y22098D02*
Y22866D01*
X-2333Y22049D02*
Y22866D01*
X8559Y22766D02*
X17746D01*
X-2333D02*
X6575D01*
X17146Y22966D02*
X17746Y22766D01*
X17146Y22566D02*
X17746Y22766D01*
X-2333D02*
X-1733Y22566D01*
X-2333Y22766D02*
X-1733Y22966D01*
X-2963Y10261D02*
Y9999D01*
X-2766D01*
X-2831Y10130D01*
Y10195D01*
X-2766Y10261D01*
X-2635D01*
X-2569Y10195D01*
Y10064D01*
X-2635Y9999D01*
X-2963Y10655D02*
X-2897Y10523D01*
X-2766Y10392D01*
X-2635D01*
X-2569Y10458D01*
Y10589D01*
X-2635Y10655D01*
X-2700D01*
X-2766Y10589D01*
Y10392D01*
X-2569Y10786D02*
X-2635D01*
Y10851D01*
X-2569D01*
Y10786D01*
X-2897Y11114D02*
X-2963Y11179D01*
Y11311D01*
X-2897Y11376D01*
X-2635D01*
X-2569Y11311D01*
Y11179D01*
X-2635Y11114D01*
X-2897D01*
Y11507D02*
X-2963Y11573D01*
Y11704D01*
X-2897Y11770D01*
X-2635D01*
X-2569Y11704D01*
Y11573D01*
X-2635Y11507D01*
X-2897D01*
X6977Y22923D02*
X6715D01*
Y22726D01*
X6846Y22792D01*
X6911D01*
X6977Y22726D01*
Y22595D01*
X6911Y22530D01*
X6780D01*
X6715Y22595D01*
X7108Y22530D02*
X7239D01*
X7174D01*
Y22923D01*
X7108Y22858D01*
X7436Y22530D02*
Y22595D01*
X7502D01*
Y22530D01*
X7436D01*
X7764Y22858D02*
X7830Y22923D01*
X7961D01*
X8026Y22858D01*
Y22595D01*
X7961Y22530D01*
X7830D01*
X7764Y22595D01*
Y22858D01*
X8158D02*
X8223Y22923D01*
X8354D01*
X8420Y22858D01*
Y22595D01*
X8354Y22530D01*
X8223D01*
X8158Y22595D01*
Y22858D01*
M02*
