M48
;Layer_Color=9474304
;FILE_FORMAT=2:5
INCH,LZ
;TYPE=PLATED
T1F00S00C0.00799
T2F00S00C0.01000
T4F00S00C0.02362
T5F00S00C0.03300
T6F00S00C0.04331
T7F00S00C0.11811
;TYPE=NON_PLATED
T8F00S00C0.01968
%
T01
X0054035Y0003347
X0061122Y0003642
X0104232Y0004134
X0115945Y0004035
X0129724
X0129921Y001378
X0115748Y0013878
X0104528Y0014272
X0108366Y0022539
X0104528Y0036614
X0121063Y004626
X0137402Y0054823
Y0072342
X0156004Y0069488
X0155905Y0061024
X0155709Y0050492
X0155512Y0039862
X0155217Y002687
X0145866Y004439
X0131595Y0031496
X0105709Y0065158
X0105315Y0070276
X009685Y0075492
X0085236Y0075787
X0088583Y0068701
X0088779Y0058858
X008061Y0058465
X0080807Y0049803
X0060532Y0031693
X0061713Y0018602
X0061221Y0011713
X0071957Y0019722
X007955Y001122
X0089173Y0011614
X0074606Y0082284
X0082579Y0096063
X0081102Y0116535
X0081201Y0126575
X0081004Y0136122
X0072146Y0136221
X0071949Y0128051
Y0118504
X006998Y0114862
X0063189Y0101378
X0058661Y0095669
X005876Y0147244
X0090256Y0135827
X0090158Y012815
X0090354Y0118209
X0109646Y0117028
Y0113189
X0109744Y0109161
X0106791Y0104429
X010935Y0097441
X0120669
X0118996Y0104626
X0125098Y0113681
X0118996Y0124803
X0110433Y0127067
X0110335Y0130807
X0110236Y0138772
X0120571Y0138878
X0116339Y0145571
X010315Y0144882
X0109744Y0154035
X0122539Y0154134
X0131299Y0159547
X0144291Y0126772
Y0119685
X0142717Y0112598
X0155905Y0111516
X0156201Y0119783
X0156299Y0126279
X0155807Y0101279
X0155905Y0093405
X0147244Y0095177
X0156004Y0081693
X0125394Y0089665
X0115256
X0051575Y0083268
X0051181Y009813
X0051316Y0109343
X0040354Y0106299
X0037106Y0114469
X0037Y0120776
X0054331Y0123031
Y0126969
X0054134Y0132776
X0054331Y0136811
X0004823Y0142421
X000502Y0154724
X0013878Y0155118
X0004626Y0128445
X0004528Y0114961
X0004429Y0103937
X0004626Y009124
X0016634Y0092028
Y0080216
X0004331Y0078445
X0036122Y0072638
X0035335Y0085236
X0029429Y0095965
X0036319Y0057185
X0054134Y0048819
X0054035Y0018898
X0053535Y0011257
X0026181Y0019882
X0017323Y0027165
X0005413Y0028642
X0004823Y0167126
X0013976Y0167421
Y0177264
X0004528Y0177461
X0004232Y0187697
X0004626Y0194193
X0013976Y0188091
X0024311Y018376
X0024114Y0173228
X0027756Y0191831
X0038189Y0193012
X0034252Y0185531
X0045276Y0182283
X004872Y0194783
X0001378Y0208661
X0059547Y018563
X0069685Y0187303
X007815Y0193012
X0090059Y019252
X0085236Y0185925
X0100098Y0187598
X0111122Y0185138
X0111713Y0191732
X0121949Y0193307
X0122146Y0186122
X0132776Y0193209
X014252Y0194882
X0142815Y0178839
X0142717Y0166929
X0156398
X0156299Y0178839
X0156693Y0189862
X0156201Y0208957
T02
X0060925Y0049803
X0064468Y0057579
X0064961Y0062598
X0075197Y0060039
X0074311Y0067716
X0070177Y0075394
X0065158Y0078248
X0057972Y0078079
X0068701Y0092815
X0072736Y0092815
X0076575Y0092618
X008061Y0093012
X0084449Y0091831
X0088583Y0091732
X0096949Y0090945
X0103248Y009252
X0108957Y0091535
X0113189Y0118898
Y0128937
X0141831Y0134252
Y0157087
X0129429Y0074803
X0136713Y0058465
X013248Y0052756
X0106595Y0054716
Y0057685
X0109153Y0047244
X0109252Y0028248
X008435Y003622
X0081382
X0078543Y0089665
X0055807Y0080118
X0042421Y0113091
X0045276Y0117323
X0048327Y0120965
X0051083Y0124902
X0042421Y0135728
X0045276Y0145276
X0054134Y0141929
X0056693Y0157185
X0051083Y0161516
X0048228Y0155512
X0053937Y0180807
X0063484Y018061
X0075787Y0180709
X0087598Y0180709
X0099114Y018061
X0110335Y0180807
X012185Y0181004
X0133071Y0180905
T04
X0006496Y0046654
Y0056496
Y0066339
T05
X0030945Y0006594
X0040945
X0146457Y0056634
Y0066634
Y0076634
Y0086634
T06
X0011319Y0202972
X0022224
X003313
X0044035
X0054941
X0049488Y0214154
X0038583
X0027677
X0016772
X0060394
X0071299
X0082205
X009311
X0104016
X0114921
X0125827
X0136732
X0142185Y0202972
X013128
X0120374
X0109468
X0098563
X0087657
X0076752
X0065847
T07
X0147835Y0011319
X0011811Y0011811
X-0015846Y0208563
X016935
T08
X0076378Y0015354
X0092126
M30
